<svg width="201" height="30" viewBox="0 0 201 30" fill="none" xmlns="http://www.w3.org/2000/svg">
<rect width="30" height="30" rx="4" fill="#053773"/>
<mask id="mask0_322_9470" style="mask-type:alpha" maskUnits="userSpaceOnUse" x="0" y="0" width="30" height="30">
<rect width="30" height="30" rx="4" fill="#053773"/>
</mask>
<g mask="url(#mask0_322_9470)">
<rect x="30" width="10" height="5" transform="rotate(90 30 0)" fill="#241E20"/>
<rect x="30" y="10" width="10" height="5" transform="rotate(90 30 10)" fill="#F02A29"/>
<rect x="30" y="20" width="10" height="5" transform="rotate(90 30 20)" fill="#FCD905"/>
<path d="M11.5625 24.6667C11.0079 24.6667 10.5332 24.4692 10.1382 24.0743C9.7433 23.6793 9.54583 23.2046 9.54583 22.65H13.5792C13.5792 23.2046 13.3817 23.6793 12.9868 24.0743C12.5918 24.4692 12.1171 24.6667 11.5625 24.6667ZM7.52917 21.6417V19.625H15.5958V21.6417H7.52917ZM7.78125 18.6167C6.62167 17.9276 5.70156 17.0033 5.02094 15.8437C4.34031 14.6842 4 13.4237 4 12.0625C4 9.96181 4.73524 8.17621 6.20573 6.70573C7.67622 5.23524 9.46181 4.5 11.5625 4.5C13.6632 4.5 15.4488 5.23524 16.9193 6.70573C18.3898 8.17621 19.125 9.96181 19.125 12.0625C19.125 13.4237 18.7847 14.6842 18.1041 15.8437C17.4234 17.0033 16.5033 17.9276 15.3438 18.6167H7.78125Z" fill="white"/>
</g>
<path d="M37.8849 20V9.81818H44.7457V11.593H40.0376V14.0192H44.3928V15.794H40.0376V18.2251H44.7656V20H37.8849ZM48.5353 15.5852V20H46.4174V12.3636H48.4359V13.7109H48.5254C48.6944 13.2668 48.9778 12.9155 49.3755 12.657C49.7733 12.3951 50.2555 12.2642 50.8223 12.2642C51.3526 12.2642 51.8149 12.3802 52.2093 12.6122C52.6038 12.8442 52.9103 13.1757 53.1291 13.6065C53.3478 14.0341 53.4572 14.5445 53.4572 15.1378V20H51.3393V15.5156C51.3426 15.0483 51.2233 14.6837 50.9814 14.4219C50.7394 14.1567 50.4063 14.0241 49.9821 14.0241C49.697 14.0241 49.4451 14.0855 49.2264 14.2081C49.0109 14.3307 48.8419 14.5097 48.7193 14.745C48.6 14.977 48.5386 15.2571 48.5353 15.5852ZM58.6065 20.1491C57.821 20.1491 57.1449 19.9901 56.5781 19.6719C56.0147 19.3504 55.5805 18.8963 55.2756 18.3097C54.9706 17.7197 54.8182 17.022 54.8182 16.2166C54.8182 15.4311 54.9706 14.7417 55.2756 14.1484C55.5805 13.5552 56.0097 13.0928 56.5632 12.7614C57.12 12.4299 57.773 12.2642 58.522 12.2642C59.0258 12.2642 59.4948 12.3454 59.929 12.5078C60.3665 12.6669 60.7476 12.9072 61.0724 13.2287C61.4006 13.5502 61.6558 13.9545 61.8381 14.4418C62.0204 14.9257 62.1115 15.4924 62.1115 16.142V16.7237H55.6634V15.4112H60.1179C60.1179 15.1063 60.0516 14.8362 59.919 14.6009C59.7865 14.3655 59.6025 14.1816 59.3672 14.049C59.1352 13.9131 58.8651 13.8452 58.5568 13.8452C58.2353 13.8452 57.9503 13.9197 57.7017 14.0689C57.4564 14.2147 57.2642 14.4119 57.125 14.6605C56.9858 14.9058 56.9145 15.1792 56.9112 15.4808V16.7287C56.9112 17.1065 56.9808 17.433 57.12 17.7081C57.2625 17.9832 57.4631 18.1953 57.7216 18.3445C57.9801 18.4936 58.2867 18.5682 58.6413 18.5682C58.8767 18.5682 59.0921 18.535 59.2876 18.4688C59.4832 18.4025 59.6506 18.303 59.7898 18.1705C59.929 18.0379 60.035 17.8755 60.108 17.6832L62.0668 17.8125C61.9673 18.2831 61.7635 18.6941 61.4553 19.0455C61.1503 19.3935 60.7559 19.6652 60.272 19.8608C59.7914 20.053 59.2363 20.1491 58.6065 20.1491ZM63.4936 20V12.3636H65.5469V13.696H65.6264C65.7656 13.2221 65.9993 12.8641 66.3274 12.6222C66.6555 12.3769 67.0334 12.2543 67.4609 12.2543C67.567 12.2543 67.6813 12.2609 67.804 12.2741C67.9266 12.2874 68.0343 12.3056 68.1271 12.3288V14.2081C68.0277 14.1783 67.8902 14.1518 67.7145 14.1286C67.5388 14.1054 67.3781 14.0938 67.2322 14.0938C66.9207 14.0938 66.6423 14.1617 66.397 14.2976C66.1551 14.4302 65.9628 14.6158 65.8203 14.8544C65.6811 15.093 65.6115 15.3681 65.6115 15.6797V20H63.4936ZM72.307 23.0227C71.6209 23.0227 71.0326 22.9283 70.5421 22.7393C70.0549 22.5537 69.6671 22.3002 69.3787 21.9787C69.0904 21.6572 68.9031 21.2959 68.8169 20.8949L70.7757 20.6314C70.8354 20.7839 70.9299 20.9264 71.0591 21.0589C71.1884 21.1915 71.3591 21.2976 71.5712 21.3771C71.7866 21.46 72.0485 21.5014 72.3567 21.5014C72.8174 21.5014 73.1969 21.3887 73.4952 21.1634C73.7968 20.9413 73.9476 20.5684 73.9476 20.0447V18.6477H73.8581C73.7653 18.8598 73.6261 19.0604 73.4405 19.2493C73.2549 19.4382 73.0163 19.5923 72.7246 19.7116C72.4329 19.831 72.0849 19.8906 71.6806 19.8906C71.1072 19.8906 70.5852 19.758 70.1145 19.4929C69.6472 19.2244 69.2743 18.8151 68.9959 18.2649C68.7208 17.7114 68.5833 17.0121 68.5833 16.1669C68.5833 15.3018 68.7241 14.5793 69.0059 13.9993C69.2876 13.4193 69.6621 12.9851 70.1294 12.6967C70.6001 12.4084 71.1155 12.2642 71.6756 12.2642C72.1032 12.2642 72.4611 12.3371 72.7495 12.483C73.0378 12.6255 73.2698 12.8045 73.4455 13.0199C73.6245 13.232 73.762 13.4408 73.8581 13.6463H73.9377V12.3636H76.0407V20.0746C76.0407 20.7242 75.8816 21.2678 75.5634 21.7053C75.2452 22.1428 74.8044 22.4709 74.2409 22.6896C73.6808 22.9117 73.0362 23.0227 72.307 23.0227ZM72.3517 18.2997C72.6931 18.2997 72.9815 18.2152 73.2168 18.0462C73.4554 17.8738 73.6377 17.6286 73.7637 17.3104C73.8929 16.9889 73.9576 16.6044 73.9576 16.157C73.9576 15.7095 73.8946 15.3217 73.7686 14.9936C73.6427 14.6622 73.4604 14.4053 73.2218 14.223C72.9831 14.0407 72.6931 13.9496 72.3517 13.9496C72.0037 13.9496 71.7104 14.044 71.4718 14.233C71.2331 14.4186 71.0525 14.6771 70.9299 15.0085C70.8072 15.34 70.7459 15.7228 70.7459 16.157C70.7459 16.5978 70.8072 16.9789 70.9299 17.3004C71.0558 17.6186 71.2364 17.8655 71.4718 18.0412C71.7104 18.2135 72.0037 18.2997 72.3517 18.2997ZM77.726 20V12.3636H79.8439V20H77.726ZM78.79 11.3793C78.4751 11.3793 78.205 11.2749 77.9796 11.0661C77.7575 10.8539 77.6465 10.6004 77.6465 10.3054C77.6465 10.0137 77.7575 9.76349 77.9796 9.55469C78.205 9.34257 78.4751 9.23651 78.79 9.23651C79.1048 9.23651 79.3733 9.34257 79.5953 9.55469C79.8207 9.76349 79.9334 10.0137 79.9334 10.3054C79.9334 10.6004 79.8207 10.8539 79.5953 11.0661C79.3733 11.2749 79.1048 11.3793 78.79 11.3793ZM85.0206 20.1491C84.2351 20.1491 83.5589 19.9901 82.9922 19.6719C82.4287 19.3504 81.9946 18.8963 81.6896 18.3097C81.3847 17.7197 81.2322 17.022 81.2322 16.2166C81.2322 15.4311 81.3847 14.7417 81.6896 14.1484C81.9946 13.5552 82.4238 13.0928 82.9773 12.7614C83.5341 12.4299 84.187 12.2642 84.9361 12.2642C85.4399 12.2642 85.9089 12.3454 86.343 12.5078C86.7805 12.6669 87.1617 12.9072 87.4865 13.2287C87.8146 13.5502 88.0698 13.9545 88.2521 14.4418C88.4344 14.9257 88.5256 15.4924 88.5256 16.142V16.7237H82.0774V15.4112H86.532C86.532 15.1063 86.4657 14.8362 86.3331 14.6009C86.2005 14.3655 86.0166 14.1816 85.7812 14.049C85.5492 13.9131 85.2791 13.8452 84.9709 13.8452C84.6494 13.8452 84.3643 13.9197 84.1158 14.0689C83.8705 14.2147 83.6783 14.4119 83.5391 14.6605C83.3999 14.9058 83.3286 15.1792 83.3253 15.4808V16.7287C83.3253 17.1065 83.3949 17.433 83.5341 17.7081C83.6766 17.9832 83.8771 18.1953 84.1357 18.3445C84.3942 18.4936 84.7008 18.5682 85.0554 18.5682C85.2907 18.5682 85.5062 18.535 85.7017 18.4688C85.8973 18.4025 86.0646 18.303 86.2038 18.1705C86.343 18.0379 86.4491 17.8755 86.522 17.6832L88.4808 17.8125C88.3814 18.2831 88.1776 18.6941 87.8693 19.0455C87.5644 19.3935 87.17 19.6652 86.6861 19.8608C86.2055 20.053 85.6503 20.1491 85.0206 20.1491ZM89.9474 20V9.81818H92.0653V13.6463H92.13C92.2228 13.4408 92.357 13.232 92.5327 13.0199C92.7116 12.8045 92.9437 12.6255 93.2287 12.483C93.517 12.3371 93.875 12.2642 94.3026 12.2642C94.8594 12.2642 95.3731 12.41 95.8438 12.7017C96.3144 12.9901 96.6906 13.4259 96.9723 14.0092C97.254 14.5893 97.3949 15.3168 97.3949 16.1918C97.3949 17.0436 97.2573 17.7628 96.9822 18.3494C96.7105 18.9328 96.3393 19.3752 95.8686 19.6768C95.4013 19.9751 94.8776 20.1243 94.2976 20.1243C93.8866 20.1243 93.5369 20.0563 93.2486 19.9205C92.9635 19.7846 92.7299 19.6139 92.5476 19.4084C92.3653 19.1996 92.2261 18.9891 92.13 18.777H92.0355V20H89.9474ZM92.0206 16.1818C92.0206 16.6359 92.0836 17.032 92.2095 17.37C92.3355 17.7081 92.5178 17.9716 92.7564 18.1605C92.995 18.3461 93.285 18.4389 93.6264 18.4389C93.9711 18.4389 94.2628 18.3445 94.5014 18.1555C94.7401 17.9633 94.9207 17.6982 95.0433 17.3601C95.1693 17.0187 95.2322 16.6259 95.2322 16.1818C95.2322 15.741 95.1709 15.3532 95.0483 15.0185C94.9257 14.6837 94.745 14.4219 94.5064 14.233C94.2678 14.044 93.9744 13.9496 93.6264 13.9496C93.2817 13.9496 92.9901 14.0407 92.7514 14.223C92.5161 14.4053 92.3355 14.6638 92.2095 14.9986C92.0836 15.3333 92.0206 15.7277 92.0206 16.1818ZM102.288 20.1491C101.503 20.1491 100.827 19.9901 100.26 19.6719C99.6963 19.3504 99.2621 18.8963 98.9572 18.3097C98.6523 17.7197 98.4998 17.022 98.4998 16.2166C98.4998 15.4311 98.6523 14.7417 98.9572 14.1484C99.2621 13.5552 99.6913 13.0928 100.245 12.7614C100.802 12.4299 101.455 12.2642 102.204 12.2642C102.707 12.2642 103.176 12.3454 103.611 12.5078C104.048 12.6669 104.429 12.9072 104.754 13.2287C105.082 13.5502 105.337 13.9545 105.52 14.4418C105.702 14.9257 105.793 15.4924 105.793 16.142V16.7237H99.345V15.4112H103.8C103.8 15.1063 103.733 14.8362 103.601 14.6009C103.468 14.3655 103.284 14.1816 103.049 14.049C102.817 13.9131 102.547 13.8452 102.238 13.8452C101.917 13.8452 101.632 13.9197 101.383 14.0689C101.138 14.2147 100.946 14.4119 100.807 14.6605C100.667 14.9058 100.596 15.1792 100.593 15.4808V16.7287C100.593 17.1065 100.662 17.433 100.802 17.7081C100.944 17.9832 101.145 18.1953 101.403 18.3445C101.662 18.4936 101.968 18.5682 102.323 18.5682C102.558 18.5682 102.774 18.535 102.969 18.4688C103.165 18.4025 103.332 18.303 103.471 18.1705C103.611 18.0379 103.717 17.8755 103.79 17.6832L105.748 17.8125C105.649 18.2831 105.445 18.6941 105.137 19.0455C104.832 19.3935 104.438 19.6652 103.954 19.8608C103.473 20.053 102.918 20.1491 102.288 20.1491ZM107.175 20V12.3636H109.229V13.696H109.308C109.447 13.2221 109.681 12.8641 110.009 12.6222C110.337 12.3769 110.715 12.2543 111.143 12.2543C111.249 12.2543 111.363 12.2609 111.486 12.2741C111.608 12.2874 111.716 12.3056 111.809 12.3288V14.2081C111.709 14.1783 111.572 14.1518 111.396 14.1286C111.22 14.1054 111.06 14.0938 110.914 14.0938C110.602 14.0938 110.324 14.1617 110.079 14.2976C109.837 14.4302 109.644 14.6158 109.502 14.8544C109.363 15.093 109.293 15.3681 109.293 15.6797V20H107.175ZM114.863 20.1442C114.375 20.1442 113.941 20.0597 113.56 19.8906C113.179 19.7183 112.877 19.4647 112.655 19.13C112.436 18.7919 112.327 18.371 112.327 17.8672C112.327 17.4429 112.405 17.0866 112.561 16.7983C112.717 16.5099 112.929 16.2779 113.197 16.1023C113.466 15.9266 113.77 15.794 114.112 15.7045C114.457 15.6151 114.818 15.5521 115.196 15.5156C115.64 15.4692 115.998 15.4261 116.27 15.3864C116.541 15.3433 116.739 15.2803 116.861 15.1974C116.984 15.1146 117.045 14.992 117.045 14.8295V14.7997C117.045 14.4848 116.946 14.2412 116.747 14.0689C116.551 13.8965 116.273 13.8104 115.912 13.8104C115.53 13.8104 115.227 13.8949 115.002 14.0639C114.776 14.2296 114.627 14.4384 114.554 14.6903L112.596 14.5312C112.695 14.0672 112.891 13.6662 113.182 13.3281C113.474 12.9867 113.85 12.7249 114.311 12.5426C114.775 12.357 115.312 12.2642 115.922 12.2642C116.346 12.2642 116.752 12.3139 117.14 12.4134C117.531 12.5128 117.877 12.6669 118.179 12.8757C118.484 13.0845 118.724 13.353 118.9 13.6811C119.075 14.0059 119.163 14.3954 119.163 14.8494V20H117.154V18.9411H117.095C116.972 19.1797 116.808 19.3902 116.603 19.5724C116.397 19.7514 116.15 19.8923 115.862 19.995C115.574 20.0945 115.24 20.1442 114.863 20.1442ZM115.469 18.6825C115.781 18.6825 116.056 18.6212 116.294 18.4986C116.533 18.3726 116.72 18.2036 116.856 17.9915C116.992 17.7794 117.06 17.5391 117.06 17.2706V16.4602C116.994 16.5033 116.903 16.5431 116.787 16.5795C116.674 16.6127 116.546 16.6442 116.404 16.674C116.261 16.7005 116.119 16.7254 115.976 16.7486C115.834 16.7685 115.704 16.7867 115.588 16.8033C115.34 16.8397 115.123 16.8977 114.937 16.9773C114.752 17.0568 114.607 17.1645 114.505 17.3004C114.402 17.433 114.35 17.5987 114.35 17.7976C114.35 18.0859 114.455 18.3063 114.664 18.4588C114.876 18.608 115.144 18.6825 115.469 18.6825ZM124.868 12.3636V13.9545H120.269V12.3636H124.868ZM121.313 10.5341H123.431V17.6534C123.431 17.849 123.461 18.0014 123.521 18.1108C123.58 18.2169 123.663 18.2914 123.769 18.3345C123.879 18.3776 124.004 18.3991 124.147 18.3991C124.246 18.3991 124.346 18.3909 124.445 18.3743C124.545 18.3544 124.621 18.3395 124.674 18.3295L125.007 19.9055C124.901 19.9387 124.752 19.9768 124.56 20.0199C124.367 20.0663 124.134 20.0945 123.859 20.1044C123.348 20.1243 122.901 20.0563 122.516 19.9006C122.135 19.7448 121.839 19.5028 121.626 19.1747C121.414 18.8466 121.31 18.4323 121.313 17.9318V10.5341ZM131.145 16.7486V12.3636H133.262V20H131.229V18.6129H131.15C130.977 19.0604 130.69 19.42 130.289 19.6918C129.892 19.9635 129.406 20.0994 128.833 20.0994C128.322 20.0994 127.873 19.9834 127.485 19.7514C127.098 19.5194 126.794 19.1896 126.576 18.7621C126.36 18.3345 126.251 17.8224 126.248 17.2259V12.3636H128.365V16.848C128.369 17.2988 128.49 17.6551 128.728 17.9169C128.967 18.1787 129.287 18.3097 129.688 18.3097C129.943 18.3097 130.182 18.2517 130.404 18.1357C130.626 18.0163 130.805 17.8407 130.941 17.6087C131.08 17.3767 131.148 17.09 131.145 16.7486ZM137.074 15.5852V20H134.956V12.3636H136.975V13.7109H137.064C137.233 13.2668 137.517 12.9155 137.915 12.657C138.312 12.3951 138.795 12.2642 139.361 12.2642C139.892 12.2642 140.354 12.3802 140.748 12.6122C141.143 12.8442 141.449 13.1757 141.668 13.6065C141.887 14.0341 141.996 14.5445 141.996 15.1378V20H139.878V15.5156C139.882 15.0483 139.762 14.6837 139.52 14.4219C139.278 14.1567 138.945 14.0241 138.521 14.0241C138.236 14.0241 137.984 14.0855 137.765 14.2081C137.55 14.3307 137.381 14.5097 137.258 14.745C137.139 14.977 137.078 15.2571 137.074 15.5852ZM147.106 23.0227C146.42 23.0227 145.831 22.9283 145.341 22.7393C144.854 22.5537 144.466 22.3002 144.178 21.9787C143.889 21.6572 143.702 21.2959 143.616 20.8949L145.575 20.6314C145.634 20.7839 145.729 20.9264 145.858 21.0589C145.987 21.1915 146.158 21.2976 146.37 21.3771C146.585 21.46 146.847 21.5014 147.156 21.5014C147.616 21.5014 147.996 21.3887 148.294 21.1634C148.596 20.9413 148.746 20.5684 148.746 20.0447V18.6477H148.657C148.564 18.8598 148.425 19.0604 148.239 19.2493C148.054 19.4382 147.815 19.5923 147.523 19.7116C147.232 19.831 146.884 19.8906 146.479 19.8906C145.906 19.8906 145.384 19.758 144.913 19.4929C144.446 19.2244 144.073 18.8151 143.795 18.2649C143.52 17.7114 143.382 17.0121 143.382 16.1669C143.382 15.3018 143.523 14.5793 143.805 13.9993C144.086 13.4193 144.461 12.9851 144.928 12.6967C145.399 12.4084 145.914 12.2642 146.474 12.2642C146.902 12.2642 147.26 12.3371 147.548 12.483C147.837 12.6255 148.069 12.8045 148.244 13.0199C148.423 13.232 148.561 13.4408 148.657 13.6463H148.737V12.3636H150.839V20.0746C150.839 20.7242 150.68 21.2678 150.362 21.7053C150.044 22.1428 149.603 22.4709 149.04 22.6896C148.48 22.9117 147.835 23.0227 147.106 23.0227ZM147.151 18.2997C147.492 18.2997 147.78 18.2152 148.016 18.0462C148.254 17.8738 148.437 17.6286 148.562 17.3104C148.692 16.9889 148.756 16.6044 148.756 16.157C148.756 15.7095 148.693 15.3217 148.567 14.9936C148.442 14.6622 148.259 14.4053 148.021 14.223C147.782 14.0407 147.492 13.9496 147.151 13.9496C146.803 13.9496 146.509 14.044 146.271 14.233C146.032 14.4186 145.851 14.6771 145.729 15.0085C145.606 15.34 145.545 15.7228 145.545 16.157C145.545 16.5978 145.606 16.9789 145.729 17.3004C145.855 17.6186 146.035 17.8655 146.271 18.0412C146.509 18.2135 146.803 18.2997 147.151 18.2997ZM158.879 14.5412L156.94 14.6605C156.906 14.4948 156.835 14.3456 156.726 14.2131C156.616 14.0772 156.472 13.9695 156.293 13.8899C156.118 13.8071 155.907 13.7656 155.662 13.7656C155.334 13.7656 155.057 13.8352 154.832 13.9744C154.606 14.1103 154.494 14.2926 154.494 14.5213C154.494 14.7036 154.567 14.8577 154.712 14.9837C154.858 15.1096 155.108 15.2107 155.463 15.2869L156.845 15.5653C157.588 15.7178 158.141 15.9631 158.506 16.3011C158.87 16.6392 159.053 17.0833 159.053 17.6335C159.053 18.134 158.905 18.5732 158.61 18.951C158.318 19.3288 157.917 19.6238 157.407 19.8359C156.9 20.0447 156.315 20.1491 155.652 20.1491C154.641 20.1491 153.836 19.9387 153.236 19.5178C152.639 19.0935 152.29 18.5168 152.187 17.7876L154.27 17.6783C154.333 17.9865 154.485 18.2218 154.727 18.3842C154.969 18.5433 155.279 18.6229 155.657 18.6229C156.028 18.6229 156.326 18.5516 156.552 18.4091C156.781 18.2633 156.897 18.076 156.9 17.8473C156.897 17.6551 156.815 17.4976 156.656 17.375C156.497 17.2491 156.252 17.1529 155.92 17.0866L154.598 16.8232C153.852 16.674 153.297 16.4155 152.933 16.0476C152.571 15.6797 152.391 15.2107 152.391 14.6406C152.391 14.1501 152.523 13.7275 152.788 13.3729C153.057 13.0182 153.433 12.7448 153.917 12.5526C154.404 12.3603 154.974 12.2642 155.627 12.2642C156.592 12.2642 157.351 12.468 157.904 12.8757C158.461 13.2834 158.786 13.8385 158.879 14.5412ZM160.386 22.8636V12.3636H162.474V13.6463H162.569C162.662 13.4408 162.796 13.232 162.971 13.0199C163.15 12.8045 163.382 12.6255 163.667 12.483C163.956 12.3371 164.314 12.2642 164.741 12.2642C165.298 12.2642 165.812 12.41 166.282 12.7017C166.753 12.9901 167.129 13.4259 167.411 14.0092C167.693 14.5893 167.834 15.3168 167.834 16.1918C167.834 17.0436 167.696 17.7628 167.421 18.3494C167.149 18.9328 166.778 19.3752 166.307 19.6768C165.84 19.9751 165.316 20.1243 164.736 20.1243C164.325 20.1243 163.976 20.0563 163.687 19.9205C163.402 19.7846 163.169 19.6139 162.986 19.4084C162.804 19.1996 162.665 18.9891 162.569 18.777H162.504V22.8636H160.386ZM162.459 16.1818C162.459 16.6359 162.522 17.032 162.648 17.37C162.774 17.7081 162.956 17.9716 163.195 18.1605C163.434 18.3461 163.724 18.4389 164.065 18.4389C164.41 18.4389 164.702 18.3445 164.94 18.1555C165.179 17.9633 165.359 17.6982 165.482 17.3601C165.608 17.0187 165.671 16.6259 165.671 16.1818C165.671 15.741 165.61 15.3532 165.487 15.0185C165.364 14.6837 165.184 14.4219 164.945 14.233C164.706 14.044 164.413 13.9496 164.065 13.9496C163.72 13.9496 163.429 14.0407 163.19 14.223C162.955 14.4053 162.774 14.6638 162.648 14.9986C162.522 15.3333 162.459 15.7277 162.459 16.1818ZM172.696 20.1491C171.924 20.1491 171.256 19.9851 170.692 19.657C170.132 19.3255 169.7 18.8648 169.395 18.2749C169.09 17.6816 168.937 16.9938 168.937 16.2116C168.937 15.4228 169.09 14.7334 169.395 14.1435C169.7 13.5502 170.132 13.0895 170.692 12.7614C171.256 12.4299 171.924 12.2642 172.696 12.2642C173.468 12.2642 174.134 12.4299 174.694 12.7614C175.258 13.0895 175.692 13.5502 175.997 14.1435C176.302 14.7334 176.454 15.4228 176.454 16.2116C176.454 16.9938 176.302 17.6816 175.997 18.2749C175.692 18.8648 175.258 19.3255 174.694 19.657C174.134 19.9851 173.468 20.1491 172.696 20.1491ZM172.706 18.5085C173.057 18.5085 173.35 18.4091 173.586 18.2102C173.821 18.008 173.998 17.733 174.118 17.3849C174.24 17.0369 174.302 16.6409 174.302 16.1967C174.302 15.7526 174.24 15.3565 174.118 15.0085C173.998 14.6605 173.821 14.3854 173.586 14.1832C173.35 13.9811 173.057 13.88 172.706 13.88C172.351 13.88 172.053 13.9811 171.811 14.1832C171.572 14.3854 171.392 14.6605 171.269 15.0085C171.15 15.3565 171.09 15.7526 171.09 16.1967C171.09 16.6409 171.15 17.0369 171.269 17.3849C171.392 17.733 171.572 18.008 171.811 18.2102C172.053 18.4091 172.351 18.5085 172.706 18.5085ZM177.831 20V12.3636H179.885V13.696H179.964C180.104 13.2221 180.337 12.8641 180.665 12.6222C180.993 12.3769 181.371 12.2543 181.799 12.2543C181.905 12.2543 182.019 12.2609 182.142 12.2741C182.265 12.2874 182.372 12.3056 182.465 12.3288V14.2081C182.366 14.1783 182.228 14.1518 182.052 14.1286C181.877 14.1054 181.716 14.0938 181.57 14.0938C181.259 14.0938 180.98 14.1617 180.735 14.2976C180.493 14.4302 180.301 14.6158 180.158 14.8544C180.019 15.093 179.949 15.3681 179.949 15.6797V20H177.831ZM188.005 12.3636V13.9545H183.406V12.3636H188.005ZM184.45 10.5341H186.568V17.6534C186.568 17.849 186.598 18.0014 186.657 18.1108C186.717 18.2169 186.8 18.2914 186.906 18.3345C187.015 18.3776 187.141 18.3991 187.284 18.3991C187.383 18.3991 187.483 18.3909 187.582 18.3743C187.681 18.3544 187.758 18.3395 187.811 18.3295L188.144 19.9055C188.038 19.9387 187.889 19.9768 187.696 20.0199C187.504 20.0663 187.27 20.0945 186.995 20.1044C186.485 20.1243 186.038 20.0563 185.653 19.9006C185.272 19.7448 184.975 19.5028 184.763 19.1747C184.551 18.8466 184.447 18.4323 184.45 17.9318V10.5341ZM191.562 20.1442C191.075 20.1442 190.64 20.0597 190.259 19.8906C189.878 19.7183 189.576 19.4647 189.354 19.13C189.136 18.7919 189.026 18.371 189.026 17.8672C189.026 17.4429 189.104 17.0866 189.26 16.7983C189.416 16.5099 189.628 16.2779 189.896 16.1023C190.165 15.9266 190.47 15.794 190.811 15.7045C191.156 15.6151 191.517 15.5521 191.895 15.5156C192.339 15.4692 192.697 15.4261 192.969 15.3864C193.241 15.3433 193.438 15.2803 193.56 15.1974C193.683 15.1146 193.744 14.992 193.744 14.8295V14.7997C193.744 14.4848 193.645 14.2412 193.446 14.0689C193.25 13.8965 192.972 13.8104 192.611 13.8104C192.23 13.8104 191.926 13.8949 191.701 14.0639C191.476 14.2296 191.326 14.4384 191.254 14.6903L189.295 14.5312C189.394 14.0672 189.59 13.6662 189.881 13.3281C190.173 12.9867 190.549 12.7249 191.01 12.5426C191.474 12.357 192.011 12.2642 192.621 12.2642C193.045 12.2642 193.451 12.3139 193.839 12.4134C194.23 12.5128 194.576 12.6669 194.878 12.8757C195.183 13.0845 195.423 13.353 195.599 13.6811C195.774 14.0059 195.862 14.3954 195.862 14.8494V20H193.854V18.9411H193.794C193.671 19.1797 193.507 19.3902 193.302 19.5724C193.096 19.7514 192.849 19.8923 192.561 19.995C192.273 20.0945 191.94 20.1442 191.562 20.1442ZM192.168 18.6825C192.48 18.6825 192.755 18.6212 192.994 18.4986C193.232 18.3726 193.42 18.2036 193.555 17.9915C193.691 17.7794 193.759 17.5391 193.759 17.2706V16.4602C193.693 16.5033 193.602 16.5431 193.486 16.5795C193.373 16.6127 193.246 16.6442 193.103 16.674C192.96 16.7005 192.818 16.7254 192.675 16.7486C192.533 16.7685 192.404 16.7867 192.288 16.8033C192.039 16.8397 191.822 16.8977 191.636 16.9773C191.451 17.0568 191.307 17.1645 191.204 17.3004C191.101 17.433 191.05 17.5987 191.05 17.7976C191.05 18.0859 191.154 18.3063 191.363 18.4588C191.575 18.608 191.844 18.6825 192.168 18.6825ZM199.623 9.81818V20H197.505V9.81818H199.623Z" fill="#053773"/>
</svg>
