<svg width="202" height="33" viewBox="0 0 202 33" fill="none" xmlns="http://www.w3.org/2000/svg">
<rect x="0.7" y="1.2" width="30.6" height="30.6" rx="4.3" fill="#053773" stroke="white" stroke-width="0.6"/>
<mask id="mask0_322_10895" style="mask-type:alpha" maskUnits="userSpaceOnUse" x="1" y="1" width="30" height="31">
<rect x="1" y="1.5" width="30" height="30" rx="4" fill="#053773"/>
</mask>
<g mask="url(#mask0_322_10895)">
<rect x="31" y="1.5" width="10" height="5" transform="rotate(90 31 1.5)" fill="#241E20"/>
<rect x="31" y="11.5" width="10" height="5" transform="rotate(90 31 11.5)" fill="#F02A29"/>
<rect x="31" y="21.5" width="10" height="5" transform="rotate(90 31 21.5)" fill="#FCD905"/>
<path d="M12.5625 26.1667C12.0079 26.1667 11.5332 25.9692 11.1382 25.5743C10.7433 25.1793 10.5458 24.7046 10.5458 24.15H14.5792C14.5792 24.7046 14.3817 25.1793 13.9868 25.5743C13.5918 25.9692 13.1171 26.1667 12.5625 26.1667ZM8.52917 23.1417V21.125H16.5958V23.1417H8.52917ZM8.78125 20.1167C7.62167 19.4276 6.70156 18.5033 6.02094 17.3437C5.34031 16.1842 5 14.9237 5 13.5625C5 11.4618 5.73524 9.67621 7.20573 8.20573C8.67622 6.73524 10.4618 6 12.5625 6C14.6632 6 16.4488 6.73524 17.9193 8.20573C19.3898 9.67621 20.125 11.4618 20.125 13.5625C20.125 14.9237 19.7847 16.1842 19.1041 17.3437C18.4234 18.5033 17.5033 19.4276 16.3438 20.1167H8.78125Z" fill="white"/>
</g>
<path d="M38.8849 21.5V11.3182H45.7457V13.093H41.0376V15.5192H45.3928V17.294H41.0376V19.7251H45.7656V21.5H38.8849ZM49.5353 17.0852V21.5H47.4174V13.8636H49.4359V15.2109H49.5254C49.6944 14.7668 49.9778 14.4155 50.3755 14.157C50.7733 13.8951 51.2555 13.7642 51.8223 13.7642C52.3526 13.7642 52.8149 13.8802 53.2093 14.1122C53.6038 14.3442 53.9103 14.6757 54.1291 15.1065C54.3478 15.5341 54.4572 16.0445 54.4572 16.6378V21.5H52.3393V17.0156C52.3426 16.5483 52.2233 16.1837 51.9814 15.9219C51.7394 15.6567 51.4063 15.5241 50.9821 15.5241C50.697 15.5241 50.4451 15.5855 50.2264 15.7081C50.0109 15.8307 49.8419 16.0097 49.7193 16.245C49.6 16.477 49.5386 16.7571 49.5353 17.0852ZM59.6065 21.6491C58.821 21.6491 58.1449 21.4901 57.5781 21.1719C57.0147 20.8504 56.5805 20.3963 56.2756 19.8097C55.9706 19.2197 55.8182 18.522 55.8182 17.7166C55.8182 16.9311 55.9706 16.2417 56.2756 15.6484C56.5805 15.0552 57.0097 14.5928 57.5632 14.2614C58.12 13.9299 58.773 13.7642 59.522 13.7642C60.0258 13.7642 60.4948 13.8454 60.929 14.0078C61.3665 14.1669 61.7476 14.4072 62.0724 14.7287C62.4006 15.0502 62.6558 15.4545 62.8381 15.9418C63.0204 16.4257 63.1115 16.9924 63.1115 17.642V18.2237H56.6634V16.9112H61.1179C61.1179 16.6063 61.0516 16.3362 60.919 16.1009C60.7865 15.8655 60.6025 15.6816 60.3672 15.549C60.1352 15.4131 59.8651 15.3452 59.5568 15.3452C59.2353 15.3452 58.9503 15.4197 58.7017 15.5689C58.4564 15.7147 58.2642 15.9119 58.125 16.1605C57.9858 16.4058 57.9145 16.6792 57.9112 16.9808V18.2287C57.9112 18.6065 57.9808 18.933 58.12 19.2081C58.2625 19.4832 58.4631 19.6953 58.7216 19.8445C58.9801 19.9936 59.2867 20.0682 59.6413 20.0682C59.8767 20.0682 60.0921 20.035 60.2876 19.9688C60.4832 19.9025 60.6506 19.803 60.7898 19.6705C60.929 19.5379 61.035 19.3755 61.108 19.1832L63.0668 19.3125C62.9673 19.7831 62.7635 20.1941 62.4553 20.5455C62.1503 20.8935 61.7559 21.1652 61.272 21.3608C60.7914 21.553 60.2363 21.6491 59.6065 21.6491ZM64.4936 21.5V13.8636H66.5469V15.196H66.6264C66.7656 14.7221 66.9993 14.3641 67.3274 14.1222C67.6555 13.8769 68.0334 13.7543 68.4609 13.7543C68.567 13.7543 68.6813 13.7609 68.804 13.7741C68.9266 13.7874 69.0343 13.8056 69.1271 13.8288V15.7081C69.0277 15.6783 68.8902 15.6518 68.7145 15.6286C68.5388 15.6054 68.3781 15.5938 68.2322 15.5938C67.9207 15.5938 67.6423 15.6617 67.397 15.7976C67.1551 15.9302 66.9628 16.1158 66.8203 16.3544C66.6811 16.593 66.6115 16.8681 66.6115 17.1797V21.5H64.4936ZM73.307 24.5227C72.6209 24.5227 72.0326 24.4283 71.5421 24.2393C71.0549 24.0537 70.6671 23.8002 70.3787 23.4787C70.0904 23.1572 69.9031 22.7959 69.8169 22.3949L71.7757 22.1314C71.8354 22.2839 71.9299 22.4264 72.0591 22.5589C72.1884 22.6915 72.3591 22.7976 72.5712 22.8771C72.7866 22.96 73.0485 23.0014 73.3567 23.0014C73.8174 23.0014 74.1969 22.8887 74.4952 22.6634C74.7968 22.4413 74.9476 22.0684 74.9476 21.5447V20.1477H74.8581C74.7653 20.3598 74.6261 20.5604 74.4405 20.7493C74.2549 20.9382 74.0163 21.0923 73.7246 21.2116C73.4329 21.331 73.0849 21.3906 72.6806 21.3906C72.1072 21.3906 71.5852 21.258 71.1145 20.9929C70.6472 20.7244 70.2743 20.3151 69.9959 19.7649C69.7208 19.2114 69.5833 18.5121 69.5833 17.6669C69.5833 16.8018 69.7241 16.0793 70.0059 15.4993C70.2876 14.9193 70.6621 14.4851 71.1294 14.1967C71.6001 13.9084 72.1155 13.7642 72.6756 13.7642C73.1032 13.7642 73.4611 13.8371 73.7495 13.983C74.0378 14.1255 74.2698 14.3045 74.4455 14.5199C74.6245 14.732 74.762 14.9408 74.8581 15.1463H74.9377V13.8636H77.0407V21.5746C77.0407 22.2242 76.8816 22.7678 76.5634 23.2053C76.2452 23.6428 75.8044 23.9709 75.2409 24.1896C74.6808 24.4117 74.0362 24.5227 73.307 24.5227ZM73.3517 19.7997C73.6931 19.7997 73.9815 19.7152 74.2168 19.5462C74.4554 19.3738 74.6377 19.1286 74.7637 18.8104C74.8929 18.4889 74.9576 18.1044 74.9576 17.657C74.9576 17.2095 74.8946 16.8217 74.7686 16.4936C74.6427 16.1622 74.4604 15.9053 74.2218 15.723C73.9831 15.5407 73.6931 15.4496 73.3517 15.4496C73.0037 15.4496 72.7104 15.544 72.4718 15.733C72.2331 15.9186 72.0525 16.1771 71.9299 16.5085C71.8072 16.84 71.7459 17.2228 71.7459 17.657C71.7459 18.0978 71.8072 18.4789 71.9299 18.8004C72.0558 19.1186 72.2364 19.3655 72.4718 19.5412C72.7104 19.7135 73.0037 19.7997 73.3517 19.7997ZM78.726 21.5V13.8636H80.8439V21.5H78.726ZM79.79 12.8793C79.4751 12.8793 79.205 12.7749 78.9796 12.5661C78.7575 12.3539 78.6465 12.1004 78.6465 11.8054C78.6465 11.5137 78.7575 11.2635 78.9796 11.0547C79.205 10.8426 79.4751 10.7365 79.79 10.7365C80.1048 10.7365 80.3733 10.8426 80.5953 11.0547C80.8207 11.2635 80.9334 11.5137 80.9334 11.8054C80.9334 12.1004 80.8207 12.3539 80.5953 12.5661C80.3733 12.7749 80.1048 12.8793 79.79 12.8793ZM86.0206 21.6491C85.2351 21.6491 84.5589 21.4901 83.9922 21.1719C83.4287 20.8504 82.9946 20.3963 82.6896 19.8097C82.3847 19.2197 82.2322 18.522 82.2322 17.7166C82.2322 16.9311 82.3847 16.2417 82.6896 15.6484C82.9946 15.0552 83.4238 14.5928 83.9773 14.2614C84.5341 13.9299 85.187 13.7642 85.9361 13.7642C86.4399 13.7642 86.9089 13.8454 87.343 14.0078C87.7805 14.1669 88.1617 14.4072 88.4865 14.7287C88.8146 15.0502 89.0698 15.4545 89.2521 15.9418C89.4344 16.4257 89.5256 16.9924 89.5256 17.642V18.2237H83.0774V16.9112H87.532C87.532 16.6063 87.4657 16.3362 87.3331 16.1009C87.2005 15.8655 87.0166 15.6816 86.7812 15.549C86.5492 15.4131 86.2791 15.3452 85.9709 15.3452C85.6494 15.3452 85.3643 15.4197 85.1158 15.5689C84.8705 15.7147 84.6783 15.9119 84.5391 16.1605C84.3999 16.4058 84.3286 16.6792 84.3253 16.9808V18.2287C84.3253 18.6065 84.3949 18.933 84.5341 19.2081C84.6766 19.4832 84.8771 19.6953 85.1357 19.8445C85.3942 19.9936 85.7008 20.0682 86.0554 20.0682C86.2907 20.0682 86.5062 20.035 86.7017 19.9688C86.8973 19.9025 87.0646 19.803 87.2038 19.6705C87.343 19.5379 87.4491 19.3755 87.522 19.1832L89.4808 19.3125C89.3814 19.7831 89.1776 20.1941 88.8693 20.5455C88.5644 20.8935 88.17 21.1652 87.6861 21.3608C87.2055 21.553 86.6503 21.6491 86.0206 21.6491ZM90.9474 21.5V11.3182H93.0653V15.1463H93.13C93.2228 14.9408 93.357 14.732 93.5327 14.5199C93.7116 14.3045 93.9437 14.1255 94.2287 13.983C94.517 13.8371 94.875 13.7642 95.3026 13.7642C95.8594 13.7642 96.3731 13.91 96.8438 14.2017C97.3144 14.4901 97.6906 14.9259 97.9723 15.5092C98.254 16.0893 98.3949 16.8168 98.3949 17.6918C98.3949 18.5436 98.2573 19.2628 97.9822 19.8494C97.7105 20.4328 97.3393 20.8752 96.8686 21.1768C96.4013 21.4751 95.8776 21.6243 95.2976 21.6243C94.8866 21.6243 94.5369 21.5563 94.2486 21.4205C93.9635 21.2846 93.7299 21.1139 93.5476 20.9084C93.3653 20.6996 93.2261 20.4891 93.13 20.277H93.0355V21.5H90.9474ZM93.0206 17.6818C93.0206 18.1359 93.0836 18.532 93.2095 18.87C93.3355 19.2081 93.5178 19.4716 93.7564 19.6605C93.995 19.8461 94.285 19.9389 94.6264 19.9389C94.9711 19.9389 95.2628 19.8445 95.5014 19.6555C95.7401 19.4633 95.9207 19.1982 96.0433 18.8601C96.1693 18.5187 96.2322 18.1259 96.2322 17.6818C96.2322 17.241 96.1709 16.8532 96.0483 16.5185C95.9257 16.1837 95.745 15.9219 95.5064 15.733C95.2678 15.544 94.9744 15.4496 94.6264 15.4496C94.2817 15.4496 93.9901 15.5407 93.7514 15.723C93.5161 15.9053 93.3355 16.1638 93.2095 16.4986C93.0836 16.8333 93.0206 17.2277 93.0206 17.6818ZM103.288 21.6491C102.503 21.6491 101.827 21.4901 101.26 21.1719C100.696 20.8504 100.262 20.3963 99.9572 19.8097C99.6523 19.2197 99.4998 18.522 99.4998 17.7166C99.4998 16.9311 99.6523 16.2417 99.9572 15.6484C100.262 15.0552 100.691 14.5928 101.245 14.2614C101.802 13.9299 102.455 13.7642 103.204 13.7642C103.707 13.7642 104.176 13.8454 104.611 14.0078C105.048 14.1669 105.429 14.4072 105.754 14.7287C106.082 15.0502 106.337 15.4545 106.52 15.9418C106.702 16.4257 106.793 16.9924 106.793 17.642V18.2237H100.345V16.9112H104.8C104.8 16.6063 104.733 16.3362 104.601 16.1009C104.468 15.8655 104.284 15.6816 104.049 15.549C103.817 15.4131 103.547 15.3452 103.238 15.3452C102.917 15.3452 102.632 15.4197 102.383 15.5689C102.138 15.7147 101.946 15.9119 101.807 16.1605C101.667 16.4058 101.596 16.6792 101.593 16.9808V18.2287C101.593 18.6065 101.662 18.933 101.802 19.2081C101.944 19.4832 102.145 19.6953 102.403 19.8445C102.662 19.9936 102.968 20.0682 103.323 20.0682C103.558 20.0682 103.774 20.035 103.969 19.9688C104.165 19.9025 104.332 19.803 104.471 19.6705C104.611 19.5379 104.717 19.3755 104.79 19.1832L106.748 19.3125C106.649 19.7831 106.445 20.1941 106.137 20.5455C105.832 20.8935 105.438 21.1652 104.954 21.3608C104.473 21.553 103.918 21.6491 103.288 21.6491ZM108.175 21.5V13.8636H110.229V15.196H110.308C110.447 14.7221 110.681 14.3641 111.009 14.1222C111.337 13.8769 111.715 13.7543 112.143 13.7543C112.249 13.7543 112.363 13.7609 112.486 13.7741C112.608 13.7874 112.716 13.8056 112.809 13.8288V15.7081C112.709 15.6783 112.572 15.6518 112.396 15.6286C112.22 15.6054 112.06 15.5938 111.914 15.5938C111.602 15.5938 111.324 15.6617 111.079 15.7976C110.837 15.9302 110.644 16.1158 110.502 16.3544C110.363 16.593 110.293 16.8681 110.293 17.1797V21.5H108.175ZM115.863 21.6442C115.375 21.6442 114.941 21.5597 114.56 21.3906C114.179 21.2183 113.877 20.9647 113.655 20.63C113.436 20.2919 113.327 19.871 113.327 19.3672C113.327 18.9429 113.405 18.5866 113.561 18.2983C113.717 18.0099 113.929 17.7779 114.197 17.6023C114.466 17.4266 114.77 17.294 115.112 17.2045C115.457 17.1151 115.818 17.0521 116.196 17.0156C116.64 16.9692 116.998 16.9261 117.27 16.8864C117.541 16.8433 117.739 16.7803 117.861 16.6974C117.984 16.6146 118.045 16.492 118.045 16.3295V16.2997C118.045 15.9848 117.946 15.7412 117.747 15.5689C117.551 15.3965 117.273 15.3104 116.912 15.3104C116.53 15.3104 116.227 15.3949 116.002 15.5639C115.776 15.7296 115.627 15.9384 115.554 16.1903L113.596 16.0312C113.695 15.5672 113.891 15.1662 114.182 14.8281C114.474 14.4867 114.85 14.2249 115.311 14.0426C115.775 13.857 116.312 13.7642 116.922 13.7642C117.346 13.7642 117.752 13.8139 118.14 13.9134C118.531 14.0128 118.877 14.1669 119.179 14.3757C119.484 14.5845 119.724 14.853 119.9 15.1811C120.075 15.5059 120.163 15.8954 120.163 16.3494V21.5H118.154V20.4411H118.095C117.972 20.6797 117.808 20.8902 117.603 21.0724C117.397 21.2514 117.15 21.3923 116.862 21.495C116.574 21.5945 116.24 21.6442 115.863 21.6442ZM116.469 20.1825C116.781 20.1825 117.056 20.1212 117.294 19.9986C117.533 19.8726 117.72 19.7036 117.856 19.4915C117.992 19.2794 118.06 19.0391 118.06 18.7706V17.9602C117.994 18.0033 117.903 18.0431 117.787 18.0795C117.674 18.1127 117.546 18.1442 117.404 18.174C117.261 18.2005 117.119 18.2254 116.976 18.2486C116.834 18.2685 116.704 18.2867 116.588 18.3033C116.34 18.3397 116.123 18.3977 115.937 18.4773C115.752 18.5568 115.607 18.6645 115.505 18.8004C115.402 18.933 115.35 19.0987 115.35 19.2976C115.35 19.5859 115.455 19.8063 115.664 19.9588C115.876 20.108 116.144 20.1825 116.469 20.1825ZM125.868 13.8636V15.4545H121.269V13.8636H125.868ZM122.313 12.0341H124.431V19.1534C124.431 19.349 124.461 19.5014 124.521 19.6108C124.58 19.7169 124.663 19.7914 124.769 19.8345C124.879 19.8776 125.004 19.8991 125.147 19.8991C125.246 19.8991 125.346 19.8909 125.445 19.8743C125.545 19.8544 125.621 19.8395 125.674 19.8295L126.007 21.4055C125.901 21.4387 125.752 21.4768 125.56 21.5199C125.367 21.5663 125.134 21.5945 124.859 21.6044C124.348 21.6243 123.901 21.5563 123.516 21.4006C123.135 21.2448 122.839 21.0028 122.626 20.6747C122.414 20.3466 122.31 19.9323 122.313 19.4318V12.0341ZM132.145 18.2486V13.8636H134.262V21.5H132.229V20.1129H132.15C131.977 20.5604 131.69 20.92 131.289 21.1918C130.892 21.4635 130.406 21.5994 129.833 21.5994C129.322 21.5994 128.873 21.4834 128.485 21.2514C128.098 21.0194 127.794 20.6896 127.576 20.2621C127.36 19.8345 127.251 19.3224 127.248 18.7259V13.8636H129.365V18.348C129.369 18.7988 129.49 19.1551 129.728 19.4169C129.967 19.6787 130.287 19.8097 130.688 19.8097C130.943 19.8097 131.182 19.7517 131.404 19.6357C131.626 19.5163 131.805 19.3407 131.941 19.1087C132.08 18.8767 132.148 18.59 132.145 18.2486ZM138.074 17.0852V21.5H135.956V13.8636H137.975V15.2109H138.064C138.233 14.7668 138.517 14.4155 138.915 14.157C139.312 13.8951 139.795 13.7642 140.361 13.7642C140.892 13.7642 141.354 13.8802 141.748 14.1122C142.143 14.3442 142.449 14.6757 142.668 15.1065C142.887 15.5341 142.996 16.0445 142.996 16.6378V21.5H140.878V17.0156C140.882 16.5483 140.762 16.1837 140.52 15.9219C140.278 15.6567 139.945 15.5241 139.521 15.5241C139.236 15.5241 138.984 15.5855 138.765 15.7081C138.55 15.8307 138.381 16.0097 138.258 16.245C138.139 16.477 138.078 16.7571 138.074 17.0852ZM148.106 24.5227C147.42 24.5227 146.831 24.4283 146.341 24.2393C145.854 24.0537 145.466 23.8002 145.178 23.4787C144.889 23.1572 144.702 22.7959 144.616 22.3949L146.575 22.1314C146.634 22.2839 146.729 22.4264 146.858 22.5589C146.987 22.6915 147.158 22.7976 147.37 22.8771C147.585 22.96 147.847 23.0014 148.156 23.0014C148.616 23.0014 148.996 22.8887 149.294 22.6634C149.596 22.4413 149.746 22.0684 149.746 21.5447V20.1477H149.657C149.564 20.3598 149.425 20.5604 149.239 20.7493C149.054 20.9382 148.815 21.0923 148.523 21.2116C148.232 21.331 147.884 21.3906 147.479 21.3906C146.906 21.3906 146.384 21.258 145.913 20.9929C145.446 20.7244 145.073 20.3151 144.795 19.7649C144.52 19.2114 144.382 18.5121 144.382 17.6669C144.382 16.8018 144.523 16.0793 144.805 15.4993C145.086 14.9193 145.461 14.4851 145.928 14.1967C146.399 13.9084 146.914 13.7642 147.474 13.7642C147.902 13.7642 148.26 13.8371 148.548 13.983C148.837 14.1255 149.069 14.3045 149.244 14.5199C149.423 14.732 149.561 14.9408 149.657 15.1463H149.737V13.8636H151.839V21.5746C151.839 22.2242 151.68 22.7678 151.362 23.2053C151.044 23.6428 150.603 23.9709 150.04 24.1896C149.48 24.4117 148.835 24.5227 148.106 24.5227ZM148.151 19.7997C148.492 19.7997 148.78 19.7152 149.016 19.5462C149.254 19.3738 149.437 19.1286 149.562 18.8104C149.692 18.4889 149.756 18.1044 149.756 17.657C149.756 17.2095 149.693 16.8217 149.567 16.4936C149.442 16.1622 149.259 15.9053 149.021 15.723C148.782 15.5407 148.492 15.4496 148.151 15.4496C147.803 15.4496 147.509 15.544 147.271 15.733C147.032 15.9186 146.851 16.1771 146.729 16.5085C146.606 16.84 146.545 17.2228 146.545 17.657C146.545 18.0978 146.606 18.4789 146.729 18.8004C146.855 19.1186 147.035 19.3655 147.271 19.5412C147.509 19.7135 147.803 19.7997 148.151 19.7997ZM159.879 16.0412L157.94 16.1605C157.906 15.9948 157.835 15.8456 157.726 15.7131C157.616 15.5772 157.472 15.4695 157.293 15.3899C157.118 15.3071 156.907 15.2656 156.662 15.2656C156.334 15.2656 156.057 15.3352 155.832 15.4744C155.606 15.6103 155.494 15.7926 155.494 16.0213C155.494 16.2036 155.567 16.3577 155.712 16.4837C155.858 16.6096 156.108 16.7107 156.463 16.7869L157.845 17.0653C158.588 17.2178 159.141 17.4631 159.506 17.8011C159.87 18.1392 160.053 18.5833 160.053 19.1335C160.053 19.634 159.905 20.0732 159.61 20.451C159.318 20.8288 158.917 21.1238 158.407 21.3359C157.9 21.5447 157.315 21.6491 156.652 21.6491C155.641 21.6491 154.836 21.4387 154.236 21.0178C153.639 20.5935 153.29 20.0168 153.187 19.2876L155.27 19.1783C155.333 19.4865 155.485 19.7218 155.727 19.8842C155.969 20.0433 156.279 20.1229 156.657 20.1229C157.028 20.1229 157.326 20.0516 157.552 19.9091C157.781 19.7633 157.897 19.576 157.9 19.3473C157.897 19.1551 157.815 18.9976 157.656 18.875C157.497 18.7491 157.252 18.6529 156.92 18.5866L155.598 18.3232C154.852 18.174 154.297 17.9155 153.933 17.5476C153.571 17.1797 153.391 16.7107 153.391 16.1406C153.391 15.6501 153.523 15.2275 153.788 14.8729C154.057 14.5182 154.433 14.2448 154.917 14.0526C155.404 13.8603 155.974 13.7642 156.627 13.7642C157.592 13.7642 158.351 13.968 158.904 14.3757C159.461 14.7834 159.786 15.3385 159.879 16.0412ZM161.386 24.3636V13.8636H163.474V15.1463H163.569C163.662 14.9408 163.796 14.732 163.971 14.5199C164.15 14.3045 164.382 14.1255 164.667 13.983C164.956 13.8371 165.314 13.7642 165.741 13.7642C166.298 13.7642 166.812 13.91 167.282 14.2017C167.753 14.4901 168.129 14.9259 168.411 15.5092C168.693 16.0893 168.834 16.8168 168.834 17.6918C168.834 18.5436 168.696 19.2628 168.421 19.8494C168.149 20.4328 167.778 20.8752 167.307 21.1768C166.84 21.4751 166.316 21.6243 165.736 21.6243C165.325 21.6243 164.976 21.5563 164.687 21.4205C164.402 21.2846 164.169 21.1139 163.986 20.9084C163.804 20.6996 163.665 20.4891 163.569 20.277H163.504V24.3636H161.386ZM163.459 17.6818C163.459 18.1359 163.522 18.532 163.648 18.87C163.774 19.2081 163.956 19.4716 164.195 19.6605C164.434 19.8461 164.724 19.9389 165.065 19.9389C165.41 19.9389 165.702 19.8445 165.94 19.6555C166.179 19.4633 166.359 19.1982 166.482 18.8601C166.608 18.5187 166.671 18.1259 166.671 17.6818C166.671 17.241 166.61 16.8532 166.487 16.5185C166.364 16.1837 166.184 15.9219 165.945 15.733C165.706 15.544 165.413 15.4496 165.065 15.4496C164.72 15.4496 164.429 15.5407 164.19 15.723C163.955 15.9053 163.774 16.1638 163.648 16.4986C163.522 16.8333 163.459 17.2277 163.459 17.6818ZM173.696 21.6491C172.924 21.6491 172.256 21.4851 171.692 21.157C171.132 20.8255 170.7 20.3648 170.395 19.7749C170.09 19.1816 169.937 18.4938 169.937 17.7116C169.937 16.9228 170.09 16.2334 170.395 15.6435C170.7 15.0502 171.132 14.5895 171.692 14.2614C172.256 13.9299 172.924 13.7642 173.696 13.7642C174.468 13.7642 175.134 13.9299 175.694 14.2614C176.258 14.5895 176.692 15.0502 176.997 15.6435C177.302 16.2334 177.454 16.9228 177.454 17.7116C177.454 18.4938 177.302 19.1816 176.997 19.7749C176.692 20.3648 176.258 20.8255 175.694 21.157C175.134 21.4851 174.468 21.6491 173.696 21.6491ZM173.706 20.0085C174.057 20.0085 174.35 19.9091 174.586 19.7102C174.821 19.508 174.998 19.233 175.118 18.8849C175.24 18.5369 175.302 18.1409 175.302 17.6967C175.302 17.2526 175.24 16.8565 175.118 16.5085C174.998 16.1605 174.821 15.8854 174.586 15.6832C174.35 15.4811 174.057 15.38 173.706 15.38C173.351 15.38 173.053 15.4811 172.811 15.6832C172.572 15.8854 172.392 16.1605 172.269 16.5085C172.15 16.8565 172.09 17.2526 172.09 17.6967C172.09 18.1409 172.15 18.5369 172.269 18.8849C172.392 19.233 172.572 19.508 172.811 19.7102C173.053 19.9091 173.351 20.0085 173.706 20.0085ZM178.831 21.5V13.8636H180.885V15.196H180.964C181.104 14.7221 181.337 14.3641 181.665 14.1222C181.993 13.8769 182.371 13.7543 182.799 13.7543C182.905 13.7543 183.019 13.7609 183.142 13.7741C183.265 13.7874 183.372 13.8056 183.465 13.8288V15.7081C183.366 15.6783 183.228 15.6518 183.052 15.6286C182.877 15.6054 182.716 15.5938 182.57 15.5938C182.259 15.5938 181.98 15.6617 181.735 15.7976C181.493 15.9302 181.301 16.1158 181.158 16.3544C181.019 16.593 180.949 16.8681 180.949 17.1797V21.5H178.831ZM189.005 13.8636V15.4545H184.406V13.8636H189.005ZM185.45 12.0341H187.568V19.1534C187.568 19.349 187.598 19.5014 187.657 19.6108C187.717 19.7169 187.8 19.7914 187.906 19.8345C188.015 19.8776 188.141 19.8991 188.284 19.8991C188.383 19.8991 188.483 19.8909 188.582 19.8743C188.681 19.8544 188.758 19.8395 188.811 19.8295L189.144 21.4055C189.038 21.4387 188.889 21.4768 188.696 21.5199C188.504 21.5663 188.27 21.5945 187.995 21.6044C187.485 21.6243 187.038 21.5563 186.653 21.4006C186.272 21.2448 185.975 21.0028 185.763 20.6747C185.551 20.3466 185.447 19.9323 185.45 19.4318V12.0341ZM192.562 21.6442C192.075 21.6442 191.64 21.5597 191.259 21.3906C190.878 21.2183 190.576 20.9647 190.354 20.63C190.136 20.2919 190.026 19.871 190.026 19.3672C190.026 18.9429 190.104 18.5866 190.26 18.2983C190.416 18.0099 190.628 17.7779 190.896 17.6023C191.165 17.4266 191.47 17.294 191.811 17.2045C192.156 17.1151 192.517 17.0521 192.895 17.0156C193.339 16.9692 193.697 16.9261 193.969 16.8864C194.241 16.8433 194.438 16.7803 194.56 16.6974C194.683 16.6146 194.744 16.492 194.744 16.3295V16.2997C194.744 15.9848 194.645 15.7412 194.446 15.5689C194.25 15.3965 193.972 15.3104 193.611 15.3104C193.23 15.3104 192.926 15.3949 192.701 15.5639C192.476 15.7296 192.326 15.9384 192.254 16.1903L190.295 16.0312C190.394 15.5672 190.59 15.1662 190.881 14.8281C191.173 14.4867 191.549 14.2249 192.01 14.0426C192.474 13.857 193.011 13.7642 193.621 13.7642C194.045 13.7642 194.451 13.8139 194.839 13.9134C195.23 14.0128 195.576 14.1669 195.878 14.3757C196.183 14.5845 196.423 14.853 196.599 15.1811C196.774 15.5059 196.862 15.8954 196.862 16.3494V21.5H194.854V20.4411H194.794C194.671 20.6797 194.507 20.8902 194.302 21.0724C194.096 21.2514 193.849 21.3923 193.561 21.495C193.273 21.5945 192.94 21.6442 192.562 21.6442ZM193.168 20.1825C193.48 20.1825 193.755 20.1212 193.994 19.9986C194.232 19.8726 194.42 19.7036 194.555 19.4915C194.691 19.2794 194.759 19.0391 194.759 18.7706V17.9602C194.693 18.0033 194.602 18.0431 194.486 18.0795C194.373 18.1127 194.246 18.1442 194.103 18.174C193.96 18.2005 193.818 18.2254 193.675 18.2486C193.533 18.2685 193.404 18.2867 193.288 18.3033C193.039 18.3397 192.822 18.3977 192.636 18.4773C192.451 18.5568 192.307 18.6645 192.204 18.8004C192.101 18.933 192.05 19.0987 192.05 19.2976C192.05 19.5859 192.154 19.8063 192.363 19.9588C192.575 20.108 192.844 20.1825 193.168 20.1825ZM200.623 11.3182V21.5H198.505V11.3182H200.623Z" fill="white"/>
</svg>
