<svg width="160" height="31" viewBox="0 0 160 31" fill="none" xmlns="http://www.w3.org/2000/svg">
<rect width="30" height="30" rx="4" fill="#053773"/>
<mask id="mask0_214_2621" style="mask-type:alpha" maskUnits="userSpaceOnUse" x="0" y="0" width="30" height="30">
<rect width="30" height="30" rx="4" fill="#053773"/>
</mask>
<g mask="url(#mask0_214_2621)">
<rect x="30" width="10" height="5" transform="rotate(90 30 0)" fill="#241E20"/>
<rect x="30" y="10" width="10" height="5" transform="rotate(90 30 10)" fill="#F02A29"/>
<rect x="30" y="20" width="10" height="5" transform="rotate(90 30 20)" fill="#FCD905"/>
<path d="M11.5625 24.6667C11.0079 24.6667 10.5332 24.4692 10.1382 24.0743C9.7433 23.6793 9.54583 23.2046 9.54583 22.65H13.5792C13.5792 23.2046 13.3817 23.6793 12.9868 24.0743C12.5918 24.4692 12.1171 24.6667 11.5625 24.6667ZM7.52917 21.6417V19.625H15.5958V21.6417H7.52917ZM7.78125 18.6167C6.62167 17.9276 5.70156 17.0033 5.02094 15.8437C4.34031 14.6842 4 13.4237 4 12.0625C4 9.96181 4.73524 8.17621 6.20573 6.70573C7.67622 5.23524 9.46181 4.5 11.5625 4.5C13.6632 4.5 15.4488 5.23524 16.9193 6.70573C18.3898 8.17621 19.125 9.96181 19.125 12.0625C19.125 13.4237 18.7847 14.6842 18.1041 15.8437C17.4234 17.0033 16.5033 17.9276 15.3438 18.6167H7.78125Z" fill="white"/>
</g>
<path d="M43 5.58594C42.9453 5.39583 42.8685 5.22786 42.7695 5.08203C42.6706 4.93359 42.5495 4.80859 42.4063 4.70703C42.2656 4.60286 42.1042 4.52344 41.9219 4.46875C41.7422 4.41406 41.543 4.38672 41.3242 4.38672C40.9154 4.38672 40.556 4.48828 40.2461 4.69141C39.9388 4.89453 39.6992 5.1901 39.5273 5.57812C39.3555 5.96354 39.2695 6.4349 39.2695 6.99219C39.2695 7.54948 39.3542 8.02344 39.5234 8.41406C39.6927 8.80469 39.9323 9.10286 40.2422 9.30859C40.5521 9.51172 40.918 9.61328 41.3398 9.61328C41.7227 9.61328 42.0495 9.54557 42.3203 9.41016C42.5938 9.27214 42.8021 9.07812 42.9453 8.82812C43.0911 8.57812 43.1641 8.28255 43.1641 7.94141L43.5078 7.99219H41.4453V6.71875H44.793V7.72656C44.793 8.42969 44.6445 9.03385 44.3477 9.53906C44.0508 10.0417 43.6419 10.4297 43.1211 10.7031C42.6003 10.974 42.0039 11.1094 41.332 11.1094C40.582 11.1094 39.9232 10.944 39.3555 10.6133C38.7878 10.2799 38.3451 9.80729 38.0273 9.19531C37.7122 8.58073 37.5547 7.85156 37.5547 7.00781C37.5547 6.35937 37.6484 5.78125 37.8359 5.27344C38.026 4.76302 38.2917 4.33073 38.6328 3.97656C38.974 3.6224 39.3711 3.35286 39.8242 3.16797C40.2773 2.98307 40.7682 2.89062 41.2969 2.89062C41.75 2.89062 42.1719 2.95703 42.5625 3.08984C42.9531 3.22005 43.2995 3.40495 43.6016 3.64453C43.9063 3.88411 44.1549 4.16927 44.3477 4.5C44.5404 4.82812 44.6641 5.1901 44.7188 5.58594H43ZM48.7666 11.1172C48.1494 11.1172 47.6182 10.9922 47.1729 10.7422C46.7301 10.4896 46.389 10.1328 46.1494 9.67187C45.9098 9.20833 45.79 8.66016 45.79 8.02734C45.79 7.41016 45.9098 6.86849 46.1494 6.40234C46.389 5.9362 46.7262 5.57292 47.1611 5.3125C47.5986 5.05208 48.1117 4.92188 48.7002 4.92188C49.096 4.92188 49.4645 4.98568 49.8057 5.11328C50.1494 5.23828 50.4489 5.42708 50.7041 5.67969C50.9619 5.93229 51.1624 6.25 51.3057 6.63281C51.4489 7.01302 51.5205 7.45833 51.5205 7.96875V8.42578H46.4541V7.39453H49.9541C49.9541 7.15495 49.902 6.94271 49.7979 6.75781C49.6937 6.57292 49.5492 6.42839 49.3643 6.32422C49.182 6.21745 48.9697 6.16406 48.7275 6.16406C48.4749 6.16406 48.251 6.22266 48.0557 6.33984C47.863 6.45443 47.7119 6.60937 47.6025 6.80469C47.4932 6.9974 47.4372 7.21224 47.4346 7.44922V8.42969C47.4346 8.72656 47.4893 8.98307 47.5986 9.19922C47.7106 9.41536 47.8682 9.58203 48.0713 9.69922C48.2744 9.81641 48.5153 9.875 48.7939 9.875C48.9788 9.875 49.1481 9.84896 49.3018 9.79688C49.4554 9.74479 49.5869 9.66667 49.6963 9.5625C49.8057 9.45833 49.889 9.33073 49.9463 9.17969L51.4854 9.28125C51.4072 9.65104 51.2471 9.97396 51.0049 10.25C50.7653 10.5234 50.4554 10.737 50.0752 10.8906C49.6976 11.0417 49.2614 11.1172 48.7666 11.1172ZM57.5986 6.71094L56.0752 6.80469C56.0492 6.67448 55.9932 6.55729 55.9072 6.45312C55.8213 6.34635 55.708 6.26172 55.5674 6.19922C55.4294 6.13411 55.264 6.10156 55.0713 6.10156C54.8135 6.10156 54.596 6.15625 54.4189 6.26562C54.2419 6.3724 54.1533 6.51562 54.1533 6.69531C54.1533 6.83854 54.2106 6.95964 54.3252 7.05859C54.4398 7.15755 54.6364 7.23698 54.915 7.29687L56.001 7.51562C56.5843 7.63542 57.0192 7.82812 57.3057 8.09375C57.5921 8.35937 57.7354 8.70833 57.7354 9.14062C57.7354 9.53385 57.6195 9.87891 57.3877 10.1758C57.1585 10.4727 56.8434 10.7044 56.4424 10.8711C56.0439 11.0352 55.5843 11.1172 55.0635 11.1172C54.2692 11.1172 53.6364 10.9518 53.165 10.6211C52.6963 10.2878 52.4215 9.83464 52.3408 9.26172L53.9775 9.17578C54.027 9.41797 54.1468 9.60286 54.3369 9.73047C54.527 9.85547 54.7705 9.91797 55.0674 9.91797C55.359 9.91797 55.5934 9.86198 55.7705 9.75C55.9502 9.63542 56.0413 9.48828 56.0439 9.30859C56.0413 9.15755 55.9775 9.03385 55.8525 8.9375C55.7275 8.83854 55.5348 8.76302 55.2744 8.71094L54.2354 8.50391C53.6494 8.38672 53.2132 8.18359 52.9268 7.89453C52.6429 7.60547 52.501 7.23698 52.501 6.78906C52.501 6.40365 52.6051 6.07161 52.8135 5.79297C53.0244 5.51432 53.32 5.29948 53.7002 5.14844C54.083 4.9974 54.5309 4.92188 55.0439 4.92188C55.8018 4.92188 56.3981 5.08203 56.833 5.40234C57.2705 5.72266 57.5257 6.15885 57.5986 6.71094ZM61.5176 11.1172C60.9004 11.1172 60.3691 10.9922 59.9238 10.7422C59.4811 10.4896 59.14 10.1328 58.9004 9.67187C58.6608 9.20833 58.541 8.66016 58.541 8.02734C58.541 7.41016 58.6608 6.86849 58.9004 6.40234C59.14 5.9362 59.4772 5.57292 59.9121 5.3125C60.3496 5.05208 60.8626 4.92188 61.4512 4.92188C61.847 4.92188 62.2155 4.98568 62.5566 5.11328C62.9004 5.23828 63.1999 5.42708 63.4551 5.67969C63.7129 5.93229 63.9134 6.25 64.0566 6.63281C64.1999 7.01302 64.2715 7.45833 64.2715 7.96875V8.42578H59.2051V7.39453H62.7051C62.7051 7.15495 62.653 6.94271 62.5488 6.75781C62.4447 6.57292 62.3001 6.42839 62.1152 6.32422C61.9329 6.21745 61.7207 6.16406 61.4785 6.16406C61.2259 6.16406 61.002 6.22266 60.8066 6.33984C60.6139 6.45443 60.4629 6.60937 60.3535 6.80469C60.2441 6.9974 60.1882 7.21224 60.1855 7.44922V8.42969C60.1855 8.72656 60.2402 8.98307 60.3496 9.19922C60.4616 9.41536 60.6191 9.58203 60.8223 9.69922C61.0254 9.81641 61.2663 9.875 61.5449 9.875C61.7298 9.875 61.8991 9.84896 62.0527 9.79688C62.2064 9.74479 62.3379 9.66667 62.4473 9.5625C62.5566 9.45833 62.64 9.33073 62.6973 9.17969L64.2363 9.28125C64.1582 9.65104 63.998 9.97396 63.7559 10.25C63.5163 10.5234 63.2064 10.737 62.8262 10.8906C62.4486 11.0417 62.0124 11.1172 61.5176 11.1172ZM67.0215 3V11H65.3574V3H67.0215ZM70.0186 3V11H68.3545V3H70.0186ZM76.3438 6.71094L74.8203 6.80469C74.7943 6.67448 74.7383 6.55729 74.6523 6.45312C74.5664 6.34635 74.4531 6.26172 74.3125 6.19922C74.1745 6.13411 74.0091 6.10156 73.8164 6.10156C73.5586 6.10156 73.3411 6.15625 73.1641 6.26562C72.987 6.3724 72.8984 6.51562 72.8984 6.69531C72.8984 6.83854 72.9557 6.95964 73.0703 7.05859C73.1849 7.15755 73.3815 7.23698 73.6602 7.29687L74.7461 7.51562C75.3294 7.63542 75.7643 7.82812 76.0508 8.09375C76.3372 8.35937 76.4805 8.70833 76.4805 9.14062C76.4805 9.53385 76.3646 9.87891 76.1328 10.1758C75.9036 10.4727 75.5885 10.7044 75.1875 10.8711C74.7891 11.0352 74.3294 11.1172 73.8086 11.1172C73.0143 11.1172 72.3815 10.9518 71.9102 10.6211C71.4414 10.2878 71.1667 9.83464 71.0859 9.26172L72.7227 9.17578C72.7721 9.41797 72.8919 9.60286 73.082 9.73047C73.2721 9.85547 73.5156 9.91797 73.8125 9.91797C74.1042 9.91797 74.3385 9.86198 74.5156 9.75C74.6953 9.63542 74.7865 9.48828 74.7891 9.30859C74.7865 9.15755 74.7227 9.03385 74.5977 8.9375C74.4727 8.83854 74.2799 8.76302 74.0195 8.71094L72.9805 8.50391C72.3945 8.38672 71.9583 8.18359 71.6719 7.89453C71.388 7.60547 71.2461 7.23698 71.2461 6.78906C71.2461 6.40365 71.3503 6.07161 71.5586 5.79297C71.7695 5.51432 72.0651 5.29948 72.4453 5.14844C72.8281 4.9974 73.276 4.92188 73.7891 4.92188C74.5469 4.92188 75.1432 5.08203 75.5781 5.40234C76.0156 5.72266 76.2708 6.15885 76.3438 6.71094ZM80.2393 11.1172C79.6247 11.1172 79.096 10.987 78.6533 10.7266C78.2132 10.4635 77.8747 10.099 77.6377 9.63281C77.4033 9.16667 77.2861 8.63021 77.2861 8.02344C77.2861 7.40885 77.4046 6.86979 77.6416 6.40625C77.8812 5.9401 78.221 5.57682 78.6611 5.31641C79.1012 5.05339 79.6247 4.92188 80.2314 4.92188C80.7549 4.92188 81.2132 5.01693 81.6064 5.20703C81.9997 5.39714 82.3109 5.66406 82.54 6.00781C82.7692 6.35156 82.8955 6.75521 82.9189 7.21875H81.3486C81.3044 6.91927 81.1872 6.67839 80.9971 6.49609C80.8096 6.3112 80.5635 6.21875 80.2588 6.21875C80.001 6.21875 79.7757 6.28906 79.583 6.42969C79.3929 6.56771 79.2445 6.76953 79.1377 7.03516C79.0309 7.30078 78.9775 7.6224 78.9775 8C78.9775 8.38281 79.0296 8.70833 79.1338 8.97656C79.2406 9.24479 79.3903 9.44922 79.583 9.58984C79.7757 9.73047 80.001 9.80078 80.2588 9.80078C80.4489 9.80078 80.6195 9.76172 80.7705 9.68359C80.9242 9.60547 81.0505 9.49219 81.1494 9.34375C81.251 9.19271 81.3174 9.01172 81.3486 8.80078H82.9189C82.8929 9.25911 82.7679 9.66276 82.5439 10.0117C82.3226 10.3581 82.0166 10.6289 81.626 10.8242C81.2354 11.0195 80.7731 11.1172 80.2393 11.1172ZM85.6484 7.53125V11H83.9844V3H85.6016V6.05859H85.6719C85.8073 5.70443 86.026 5.42708 86.3281 5.22656C86.6302 5.02344 87.0091 4.92188 87.4648 4.92188C87.8815 4.92188 88.2448 5.01302 88.5547 5.19531C88.8672 5.375 89.1094 5.63411 89.2813 5.97266C89.4557 6.30859 89.5417 6.71094 89.5391 7.17969V11H87.875V7.47656C87.8776 7.10677 87.7839 6.81901 87.5938 6.61328C87.4063 6.40755 87.1432 6.30469 86.8047 6.30469C86.5781 6.30469 86.3776 6.35286 86.2031 6.44922C86.0313 6.54557 85.8958 6.6862 85.7969 6.87109C85.7005 7.05339 85.651 7.27344 85.6484 7.53125ZM92.5596 11.1133C92.1768 11.1133 91.8356 11.0469 91.5361 10.9141C91.2367 10.7786 90.9997 10.5794 90.8252 10.3164C90.6533 10.0508 90.5674 9.72005 90.5674 9.32422C90.5674 8.99089 90.6286 8.71094 90.751 8.48437C90.8734 8.25781 91.04 8.07552 91.251 7.9375C91.4619 7.79948 91.7015 7.69531 91.9697 7.625C92.2406 7.55469 92.5244 7.50521 92.8213 7.47656C93.1702 7.4401 93.4515 7.40625 93.665 7.375C93.8786 7.34115 94.0335 7.29167 94.1299 7.22656C94.2262 7.16146 94.2744 7.0651 94.2744 6.9375V6.91406C94.2744 6.66667 94.1963 6.47526 94.04 6.33984C93.8864 6.20443 93.6676 6.13672 93.3838 6.13672C93.0843 6.13672 92.846 6.20312 92.6689 6.33594C92.4919 6.46615 92.3747 6.63021 92.3174 6.82812L90.7783 6.70312C90.8564 6.33854 91.0101 6.02344 91.2393 5.75781C91.4684 5.48958 91.764 5.28385 92.126 5.14062C92.4906 4.99479 92.9124 4.92188 93.3916 4.92188C93.7249 4.92188 94.0439 4.96094 94.3486 5.03906C94.6559 5.11719 94.9281 5.23828 95.165 5.40234C95.4046 5.56641 95.5934 5.77734 95.7314 6.03516C95.8695 6.29036 95.9385 6.59635 95.9385 6.95312V11H94.3604V10.168H94.3135C94.2171 10.3555 94.0882 10.5208 93.9268 10.6641C93.7653 10.8047 93.5713 10.9154 93.3447 10.9961C93.1182 11.0742 92.8564 11.1133 92.5596 11.1133ZM93.0361 9.96484C93.2809 9.96484 93.4971 9.91667 93.6846 9.82031C93.8721 9.72135 94.0192 9.58854 94.126 9.42188C94.2327 9.25521 94.2861 9.06641 94.2861 8.85547V8.21875C94.234 8.2526 94.1624 8.28385 94.0713 8.3125C93.9827 8.33854 93.8825 8.36328 93.7705 8.38672C93.6585 8.40755 93.5465 8.42708 93.4346 8.44531C93.3226 8.46094 93.221 8.47526 93.1299 8.48828C92.9346 8.51693 92.764 8.5625 92.6182 8.625C92.4723 8.6875 92.359 8.77214 92.2783 8.87891C92.1976 8.98307 92.1572 9.11328 92.1572 9.26953C92.1572 9.49609 92.2393 9.66927 92.4033 9.78906C92.57 9.90625 92.7809 9.96484 93.0361 9.96484ZM100.456 5V6.25H96.7529V5H100.456ZM97.6006 11V4.56641C97.6006 4.13151 97.6852 3.77083 97.8545 3.48437C98.0264 3.19792 98.2607 2.98307 98.5576 2.83984C98.8545 2.69661 99.1917 2.625 99.5693 2.625C99.8245 2.625 100.058 2.64453 100.269 2.68359C100.482 2.72266 100.641 2.75781 100.745 2.78906L100.448 4.03906C100.383 4.01823 100.302 3.9987 100.206 3.98047C100.112 3.96224 100.016 3.95312 99.917 3.95312C99.6722 3.95312 99.5016 4.01042 99.4053 4.125C99.3089 4.23698 99.2607 4.39453 99.2607 4.59766V11H97.6006ZM104.664 5V6.25H101.051V5H104.664ZM101.871 3.5625H103.535V9.15625C103.535 9.3099 103.559 9.42969 103.605 9.51562C103.652 9.59896 103.717 9.65755 103.801 9.69141C103.887 9.72526 103.986 9.74219 104.098 9.74219C104.176 9.74219 104.254 9.73568 104.332 9.72266C104.41 9.70703 104.47 9.69531 104.512 9.6875L104.773 10.9258C104.69 10.9518 104.573 10.9818 104.422 11.0156C104.271 11.0521 104.087 11.0742 103.871 11.082C103.47 11.0977 103.118 11.0443 102.816 10.9219C102.517 10.7995 102.284 10.6094 102.117 10.3516C101.951 10.0937 101.868 9.76823 101.871 9.375V3.5625ZM111.521 5V6.25H107.817V5H111.521ZM108.665 11V4.56641C108.665 4.13151 108.75 3.77083 108.919 3.48437C109.091 3.19792 109.325 2.98307 109.622 2.83984C109.919 2.69661 110.256 2.625 110.634 2.625C110.889 2.625 111.122 2.64453 111.333 2.68359C111.547 2.72266 111.705 2.75781 111.81 2.78906L111.513 4.03906C111.448 4.01823 111.367 3.9987 111.271 3.98047C111.177 3.96224 111.08 3.95312 110.981 3.95312C110.737 3.95312 110.566 4.01042 110.47 4.125C110.373 4.23698 110.325 4.39453 110.325 4.59766V11H108.665ZM116.385 8.44531V5H118.049V11H116.451V9.91016H116.389C116.253 10.2617 116.028 10.5443 115.713 10.7578C115.4 10.9714 115.019 11.0781 114.568 11.0781C114.167 11.0781 113.814 10.987 113.51 10.8047C113.205 10.6224 112.967 10.3633 112.795 10.0273C112.626 9.69141 112.54 9.28906 112.537 8.82031V5H114.201V8.52344C114.204 8.8776 114.299 9.15755 114.486 9.36328C114.674 9.56901 114.925 9.67187 115.24 9.67187C115.441 9.67187 115.628 9.6263 115.803 9.53516C115.977 9.44141 116.118 9.30339 116.225 9.12109C116.334 8.9388 116.387 8.71354 116.385 8.44531ZM114.111 4.17969C113.887 4.17969 113.695 4.10156 113.533 3.94531C113.372 3.78646 113.291 3.59896 113.291 3.38281C113.291 3.16146 113.372 2.97396 113.533 2.82031C113.695 2.66667 113.887 2.58984 114.111 2.58984C114.338 2.58984 114.529 2.66667 114.686 2.82031C114.844 2.97396 114.924 3.16146 114.924 3.38281C114.924 3.59896 114.844 3.78646 114.686 3.94531C114.529 4.10156 114.338 4.17969 114.111 4.17969ZM116.502 4.17969C116.278 4.17969 116.085 4.10156 115.924 3.94531C115.762 3.78646 115.682 3.59896 115.682 3.38281C115.682 3.16146 115.762 2.97396 115.924 2.82031C116.085 2.66667 116.278 2.58984 116.502 2.58984C116.729 2.58984 116.92 2.66667 117.076 2.82031C117.235 2.97396 117.314 3.16146 117.314 3.38281C117.314 3.59896 117.235 3.78646 117.076 3.94531C116.92 4.10156 116.729 4.17969 116.502 4.17969ZM119.38 11V5H120.993V6.04687H121.056C121.165 5.67448 121.349 5.39323 121.606 5.20313C121.864 5.01042 122.161 4.91406 122.497 4.91406C122.58 4.91406 122.67 4.91927 122.767 4.92969C122.863 4.9401 122.948 4.95443 123.021 4.97266V6.44922C122.942 6.42578 122.834 6.40495 122.696 6.38672C122.558 6.36849 122.432 6.35938 122.317 6.35938C122.073 6.35938 121.854 6.41276 121.661 6.51953C121.471 6.6237 121.32 6.76953 121.208 6.95703C121.099 7.14453 121.044 7.36068 121.044 7.60547V11H119.38Z" fill="#053773"/>
<path d="M37.9482 27V16.0909H45.299V17.9925H40.2546V20.592H44.9208V22.4936H40.2546V25.0984H45.3203V27H37.9482ZM49.3593 22.2699V27H47.0901V18.8182H49.2528V20.2617H49.3486C49.5297 19.7859 49.8334 19.4094 50.2595 19.1325C50.6856 18.8519 51.2023 18.7116 51.8096 18.7116C52.3778 18.7116 52.8731 18.8359 53.2957 19.0845C53.7183 19.3331 54.0468 19.6882 54.2812 20.1499C54.5155 20.608 54.6327 21.1548 54.6327 21.7905V27H52.3635V22.1953C52.3671 21.6946 52.2393 21.304 51.98 21.0234C51.7208 20.7393 51.3639 20.5973 50.9094 20.5973C50.604 20.5973 50.3341 20.663 50.0997 20.7944C49.8689 20.9258 49.6878 21.1175 49.5564 21.3697C49.4285 21.6183 49.3628 21.9183 49.3593 22.2699ZM60.1499 27.1598C59.3082 27.1598 58.5838 26.9893 57.9766 26.6484C57.3729 26.304 56.9077 25.8175 56.581 25.1889C56.2543 24.5568 56.0909 23.8093 56.0909 22.9464C56.0909 22.1048 56.2543 21.3661 56.581 20.7305C56.9077 20.0948 57.3675 19.5994 57.9606 19.2443C58.5572 18.8892 59.2567 18.7116 60.0593 18.7116C60.5991 18.7116 61.1016 18.7987 61.5668 18.9727C62.0355 19.1431 62.4439 19.4006 62.7919 19.745C63.1435 20.0895 63.4169 20.5227 63.6122 21.0447C63.8075 21.5632 63.9052 22.1705 63.9052 22.8665V23.4897H56.9964V22.0835H61.7692C61.7692 21.7567 61.6982 21.4673 61.5561 21.2152C61.4141 20.9631 61.217 20.766 60.9648 20.6239C60.7163 20.4783 60.4268 20.4055 60.0966 20.4055C59.7521 20.4055 59.4467 20.4854 59.1804 20.6452C58.9176 20.8015 58.7116 21.0128 58.5625 21.2791C58.4134 21.5419 58.337 21.8349 58.3335 22.158V23.495C58.3335 23.8999 58.408 24.2496 58.5572 24.5444C58.7099 24.8391 58.9247 25.0664 59.2017 25.2262C59.4787 25.386 59.8072 25.4659 60.1871 25.4659C60.4393 25.4659 60.6701 25.4304 60.8796 25.3594C61.0891 25.2884 61.2685 25.1818 61.4176 25.0398C61.5668 24.8977 61.6804 24.7237 61.7585 24.5178L63.8572 24.6562C63.7507 25.1605 63.5323 25.6009 63.2021 25.9773C62.8754 26.3501 62.4528 26.6413 61.9343 26.8509C61.4194 27.0568 60.8246 27.1598 60.1499 27.1598ZM65.386 27V18.8182H67.5859V20.2457H67.6712C67.8203 19.7379 68.0707 19.3544 68.4222 19.0952C68.7738 18.8324 69.1786 18.701 69.6367 18.701C69.7504 18.701 69.8729 18.7081 70.0043 18.7223C70.1357 18.7365 70.2511 18.756 70.3505 18.7809V20.7944C70.244 20.7624 70.0966 20.734 69.9084 20.7092C69.7202 20.6843 69.5479 20.6719 69.3917 20.6719C69.0579 20.6719 68.7596 20.7447 68.4968 20.8903C68.2376 21.0323 68.0316 21.2312 67.8789 21.4869C67.7298 21.7425 67.6552 22.0373 67.6552 22.3711V27H65.386ZM74.8289 30.2386C74.0938 30.2386 73.4635 30.1374 72.9379 29.935C72.4159 29.7362 72.0004 29.4645 71.6915 29.12C71.3825 28.7756 71.1819 28.3885 71.0896 27.9588L73.1883 27.6765C73.2522 27.8398 73.3534 27.9925 73.4919 28.1346C73.6304 28.2766 73.8133 28.3903 74.0406 28.4755C74.2714 28.5643 74.5519 28.6087 74.8822 28.6087C75.3758 28.6087 75.7824 28.4879 76.102 28.2464C76.4252 28.0085 76.5867 27.609 76.5867 27.0479V25.5511H76.4909C76.3914 25.7784 76.2423 25.9933 76.0434 26.1957C75.8445 26.3981 75.5889 26.5632 75.2764 26.6911C74.9639 26.8189 74.591 26.8828 74.1578 26.8828C73.5434 26.8828 72.9841 26.7408 72.4798 26.4567C71.9791 26.169 71.5796 25.7305 71.2813 25.141C70.9866 24.5479 70.8392 23.7987 70.8392 22.8931C70.8392 21.9663 70.9901 21.1921 71.292 20.5707C71.5938 19.9492 71.9951 19.484 72.4958 19.1751C73.0001 18.8661 73.5523 18.7116 74.1524 18.7116C74.6105 18.7116 74.9941 18.7898 75.303 18.946C75.6119 19.0987 75.8605 19.2905 76.0487 19.5213C76.2405 19.7486 76.3879 19.9723 76.4909 20.1925H76.5761V18.8182H78.8293V27.0799C78.8293 27.7759 78.6588 28.3583 78.3179 28.8271C77.977 29.2958 77.5047 29.6474 76.901 29.8817C76.3009 30.1197 75.6102 30.2386 74.8289 30.2386ZM74.8769 25.1783C75.2426 25.1783 75.5516 25.0877 75.8037 24.9066C76.0594 24.7219 76.2547 24.4592 76.3896 24.1183C76.5281 23.7738 76.5974 23.3619 76.5974 22.8825C76.5974 22.4031 76.5299 21.9876 76.395 21.636C76.26 21.2809 76.0647 21.0057 75.809 20.8104C75.5534 20.6151 75.2426 20.5174 74.8769 20.5174C74.504 20.5174 74.1897 20.6186 73.934 20.821C73.6784 21.0199 73.4848 21.2969 73.3534 21.652C73.222 22.0071 73.1563 22.4173 73.1563 22.8825C73.1563 23.3548 73.222 23.7631 73.3534 24.1076C73.4884 24.4485 73.6819 24.7131 73.934 24.9013C74.1897 25.0859 74.504 25.1783 74.8769 25.1783ZM80.635 27V18.8182H82.9042V27H80.635ZM81.7749 17.7635C81.4376 17.7635 81.1482 17.6516 80.9067 17.4279C80.6688 17.2006 80.5498 16.929 80.5498 16.6129C80.5498 16.3004 80.6688 16.0323 80.9067 15.8086C81.1482 15.5813 81.4376 15.4677 81.7749 15.4677C82.1123 15.4677 82.3999 15.5813 82.6379 15.8086C82.8794 16.0323 83.0001 16.3004 83.0001 16.6129C83.0001 16.929 82.8794 17.2006 82.6379 17.4279C82.3999 17.6516 82.1123 17.7635 81.7749 17.7635ZM88.4506 27.1598C87.609 27.1598 86.8846 26.9893 86.2773 26.6484C85.6737 26.304 85.2085 25.8175 84.8817 25.1889C84.555 24.5568 84.3917 23.8093 84.3917 22.9464C84.3917 22.1048 84.555 21.3661 84.8817 20.7305C85.2085 20.0948 85.6683 19.5994 86.2614 19.2443C86.858 18.8892 87.5575 18.7116 88.3601 18.7116C88.8999 18.7116 89.4023 18.7987 89.8675 18.9727C90.3363 19.1431 90.7447 19.4006 91.0927 19.745C91.4442 20.0895 91.7177 20.5227 91.913 21.0447C92.1083 21.5632 92.206 22.1705 92.206 22.8665V23.4897H85.2972V22.0835H90.07C90.07 21.7567 89.9989 21.4673 89.8569 21.2152C89.7148 20.9631 89.5178 20.766 89.2656 20.6239C89.017 20.4783 88.7276 20.4055 88.3974 20.4055C88.0529 20.4055 87.7475 20.4854 87.4812 20.6452C87.2184 20.8015 87.0124 21.0128 86.8633 21.2791C86.7141 21.5419 86.6378 21.8349 86.6342 22.158V23.495C86.6342 23.8999 86.7088 24.2496 86.858 24.5444C87.0107 24.8391 87.2255 25.0664 87.5025 25.2262C87.7795 25.386 88.108 25.4659 88.4879 25.4659C88.7401 25.4659 88.9709 25.4304 89.1804 25.3594C89.3899 25.2884 89.5692 25.1818 89.7184 25.0398C89.8675 24.8977 89.9812 24.7237 90.0593 24.5178L92.158 24.6562C92.0515 25.1605 91.8331 25.6009 91.5028 25.9773C91.1761 26.3501 90.7536 26.6413 90.2351 26.8509C89.7202 27.0568 89.1254 27.1598 88.4506 27.1598ZM93.7294 27V16.0909H95.9986V20.1925H96.0678C96.1673 19.9723 96.3111 19.7486 96.4993 19.5213C96.6911 19.2905 96.9396 19.0987 97.245 18.946C97.554 18.7898 97.9375 18.7116 98.3956 18.7116C98.9922 18.7116 99.5426 18.8679 100.047 19.1804C100.551 19.4893 100.954 19.9563 101.256 20.5813C101.558 21.2028 101.709 21.9822 101.709 22.9197C101.709 23.8324 101.561 24.603 101.267 25.2315C100.975 25.8565 100.578 26.3306 100.074 26.6538C99.5728 26.9734 99.0117 27.1332 98.3903 27.1332C97.9499 27.1332 97.5753 27.0604 97.2663 26.9148C96.9609 26.7692 96.7106 26.5863 96.5153 26.3661C96.32 26.1424 96.1708 25.9169 96.0678 25.6896H95.9666V27H93.7294ZM95.9506 22.9091C95.9506 23.3956 96.0181 23.82 96.1531 24.1822C96.288 24.5444 96.4833 24.8267 96.739 25.0291C96.9947 25.228 97.3054 25.3274 97.6712 25.3274C98.0405 25.3274 98.353 25.2262 98.6087 25.0238C98.8643 24.8178 99.0579 24.5337 99.1893 24.1715C99.3242 23.8058 99.3917 23.3849 99.3917 22.9091C99.3917 22.4368 99.326 22.0213 99.1946 21.6626C99.0632 21.304 98.8697 21.0234 98.614 20.821C98.3583 20.6186 98.044 20.5174 97.6712 20.5174C97.3018 20.5174 96.9893 20.6151 96.7337 20.8104C96.4815 21.0057 96.288 21.2827 96.1531 21.6413C96.0181 22 95.9506 22.4226 95.9506 22.9091ZM106.952 27.1598C106.11 27.1598 105.386 26.9893 104.778 26.6484C104.175 26.304 103.709 25.8175 103.383 25.1889C103.056 24.5568 102.893 23.8093 102.893 22.9464C102.893 22.1048 103.056 21.3661 103.383 20.7305C103.709 20.0948 104.169 19.5994 104.762 19.2443C105.359 18.8892 106.059 18.7116 106.861 18.7116C107.401 18.7116 107.903 18.7987 108.369 18.9727C108.837 19.1431 109.246 19.4006 109.594 19.745C109.945 20.0895 110.219 20.5227 110.414 21.0447C110.609 21.5632 110.707 22.1705 110.707 22.8665V23.4897H103.798V22.0835H108.571C108.571 21.7567 108.5 21.4673 108.358 21.2152C108.216 20.9631 108.019 20.766 107.767 20.6239C107.518 20.4783 107.229 20.4055 106.898 20.4055C106.554 20.4055 106.248 20.4854 105.982 20.6452C105.719 20.8015 105.513 21.0128 105.364 21.2791C105.215 21.5419 105.139 21.8349 105.135 22.158V23.495C105.135 23.8999 105.21 24.2496 105.359 24.5444C105.512 24.8391 105.726 25.0664 106.003 25.2262C106.28 25.386 106.609 25.4659 106.989 25.4659C107.241 25.4659 107.472 25.4304 107.681 25.3594C107.891 25.2884 108.07 25.1818 108.219 25.0398C108.369 24.8977 108.482 24.7237 108.56 24.5178L110.659 24.6562C110.552 25.1605 110.334 25.6009 110.004 25.9773C109.677 26.3501 109.255 26.6413 108.736 26.8509C108.221 27.0568 107.626 27.1598 106.952 27.1598ZM112.188 27V18.8182H114.388V20.2457H114.473C114.622 19.7379 114.872 19.3544 115.224 19.0952C115.576 18.8324 115.98 18.701 116.438 18.701C116.552 18.701 116.675 18.7081 116.806 18.7223C116.937 18.7365 117.053 18.756 117.152 18.7809V20.7944C117.046 20.7624 116.898 20.734 116.71 20.7092C116.522 20.6843 116.35 20.6719 116.193 20.6719C115.86 20.6719 115.561 20.7447 115.299 20.8903C115.039 21.0323 114.833 21.2312 114.681 21.4869C114.532 21.7425 114.457 22.0373 114.457 22.3711V27H112.188ZM120.424 27.1545C119.902 27.1545 119.437 27.0639 119.029 26.8828C118.62 26.6982 118.297 26.4265 118.059 26.0678C117.825 25.7056 117.708 25.2546 117.708 24.7148C117.708 24.2603 117.791 23.8786 117.958 23.5696C118.125 23.2607 118.352 23.0121 118.64 22.8239C118.927 22.6357 119.254 22.4936 119.62 22.3977C119.989 22.3018 120.376 22.2344 120.781 22.1953C121.257 22.1456 121.64 22.0994 121.932 22.0568C122.223 22.0107 122.434 21.9432 122.566 21.8544C122.697 21.7656 122.763 21.6342 122.763 21.4602V21.4283C122.763 21.0909 122.656 20.8299 122.443 20.6452C122.233 20.4606 121.935 20.3683 121.548 20.3683C121.14 20.3683 120.815 20.4588 120.573 20.6399C120.332 20.8175 120.172 21.0412 120.094 21.3111L117.995 21.1406C118.102 20.6435 118.311 20.2138 118.624 19.8516C118.936 19.4858 119.339 19.2053 119.833 19.0099C120.33 18.8111 120.905 18.7116 121.559 18.7116C122.013 18.7116 122.448 18.7649 122.864 18.8714C123.283 18.978 123.654 19.1431 123.977 19.3668C124.304 19.5906 124.561 19.8782 124.749 20.2298C124.938 20.5778 125.032 20.995 125.032 21.4815V27H122.88V25.8654H122.816C122.684 26.1211 122.509 26.3466 122.289 26.5419C122.068 26.7337 121.804 26.8846 121.495 26.9947C121.186 27.1012 120.829 27.1545 120.424 27.1545ZM121.074 25.5884C121.408 25.5884 121.703 25.5227 121.958 25.3913C122.214 25.2564 122.415 25.0753 122.56 24.848C122.706 24.6207 122.779 24.3633 122.779 24.0756V23.2074C122.708 23.2536 122.61 23.2962 122.486 23.3352C122.365 23.3707 122.228 23.4045 122.075 23.4364C121.923 23.4648 121.77 23.4915 121.617 23.5163C121.465 23.5376 121.326 23.5572 121.202 23.5749C120.936 23.614 120.703 23.6761 120.504 23.7614C120.305 23.8466 120.151 23.962 120.041 24.1076C119.931 24.2496 119.876 24.4272 119.876 24.6403C119.876 24.9492 119.987 25.1854 120.211 25.3487C120.438 25.5085 120.726 25.5884 121.074 25.5884ZM131.144 18.8182V20.5227H126.217V18.8182H131.144ZM127.336 16.858H129.605V24.4858C129.605 24.6953 129.637 24.8587 129.701 24.9759C129.765 25.0895 129.853 25.1694 129.967 25.2156C130.084 25.2617 130.219 25.2848 130.372 25.2848C130.478 25.2848 130.585 25.2759 130.691 25.2582C130.798 25.2369 130.88 25.2209 130.936 25.2102L131.293 26.8988C131.18 26.9343 131.02 26.9751 130.814 27.0213C130.608 27.071 130.358 27.1012 130.063 27.1119C129.516 27.1332 129.037 27.0604 128.625 26.8935C128.216 26.7266 127.898 26.4673 127.671 26.1158C127.444 25.7642 127.332 25.3203 127.336 24.7841V16.858ZM137.869 23.5163V18.8182H140.138V27H137.96V25.5138H137.874C137.69 25.9933 137.383 26.3786 136.953 26.6697C136.527 26.9609 136.007 27.1065 135.392 27.1065C134.845 27.1065 134.364 26.9822 133.949 26.7337C133.533 26.4851 133.208 26.1317 132.974 25.6737C132.743 25.2156 132.626 24.6669 132.622 24.0277V18.8182H134.892V23.6229C134.895 24.1058 135.025 24.4876 135.28 24.7681C135.536 25.0487 135.879 25.1889 136.308 25.1889C136.582 25.1889 136.838 25.1268 137.075 25.0025C137.313 24.8746 137.505 24.6864 137.651 24.4379C137.8 24.1893 137.873 23.8821 137.869 23.5163ZM144.223 22.2699V27H141.953V18.8182H144.116V20.2617H144.212C144.393 19.7859 144.697 19.4094 145.123 19.1325C145.549 18.8519 146.066 18.7116 146.673 18.7116C147.241 18.7116 147.736 18.8359 148.159 19.0845C148.582 19.3331 148.91 19.6882 149.144 20.1499C149.379 20.608 149.496 21.1548 149.496 21.7905V27H147.227V22.1953C147.23 21.6946 147.103 21.304 146.843 21.0234C146.584 20.7393 146.227 20.5973 145.773 20.5973C145.467 20.5973 145.197 20.663 144.963 20.7944C144.732 20.9258 144.551 21.1175 144.42 21.3697C144.292 21.6183 144.226 21.9183 144.223 22.2699ZM154.971 30.2386C154.235 30.2386 153.605 30.1374 153.08 29.935C152.558 29.7362 152.142 29.4645 151.833 29.12C151.524 28.7756 151.324 28.3885 151.231 27.9588L153.33 27.6765C153.394 27.8398 153.495 27.9925 153.634 28.1346C153.772 28.2766 153.955 28.3903 154.182 28.4755C154.413 28.5643 154.694 28.6087 155.024 28.6087C155.517 28.6087 155.924 28.4879 156.244 28.2464C156.567 28.0085 156.728 27.609 156.728 27.0479V25.5511H156.632C156.533 25.7784 156.384 25.9933 156.185 26.1957C155.986 26.3981 155.73 26.5632 155.418 26.6911C155.105 26.8189 154.733 26.8828 154.299 26.8828C153.685 26.8828 153.126 26.7408 152.621 26.4567C152.121 26.169 151.721 25.7305 151.423 25.141C151.128 24.5479 150.981 23.7987 150.981 22.8931C150.981 21.9663 151.132 21.1921 151.434 20.5707C151.735 19.9492 152.137 19.484 152.637 19.1751C153.142 18.8661 153.694 18.7116 154.294 18.7116C154.752 18.7116 155.136 18.7898 155.445 18.946C155.754 19.0987 156.002 19.2905 156.19 19.5213C156.382 19.7486 156.529 19.9723 156.632 20.1925H156.718V18.8182H158.971V27.0799C158.971 27.7759 158.8 28.3583 158.46 28.8271C158.119 29.2958 157.646 29.6474 157.043 29.8817C156.442 30.1197 155.752 30.2386 154.971 30.2386ZM155.018 25.1783C155.384 25.1783 155.693 25.0877 155.945 24.9066C156.201 24.7219 156.396 24.4592 156.531 24.1183C156.67 23.7738 156.739 23.3619 156.739 22.8825C156.739 22.4031 156.672 21.9876 156.537 21.636C156.402 21.2809 156.206 21.0057 155.951 20.8104C155.695 20.6151 155.384 20.5174 155.018 20.5174C154.646 20.5174 154.331 20.6186 154.076 20.821C153.82 21.0199 153.626 21.2969 153.495 21.652C153.364 22.0071 153.298 22.4173 153.298 22.8825C153.298 23.3548 153.364 23.7631 153.495 24.1076C153.63 24.4485 153.824 24.7131 154.076 24.9013C154.331 25.0859 154.646 25.1783 155.018 25.1783Z" fill="#053773"/>
</svg>
