<svg width="161" height="32" viewBox="0 0 161 32" fill="none"
  xmlns="http://www.w3.org/2000/svg">
  <rect x="0.7" y="0.7" width="30.6" height="30.6" rx="4.3" fill="#053773" stroke="white" stroke-width="0.6"/>
  <mask id="mask0_211_9482" style="mask-type:alpha" maskUnits="userSpaceOnUse" x="1" y="1" width="30" height="30">
    <rect x="1" y="1" width="30" height="30" rx="4" fill="#053773"/>
  </mask>
  <g mask="url(#mask0_211_9482)">
    <rect x="31" y="1" width="10" height="5" transform="rotate(90 31 1)" fill="#241E20"/>
    <rect x="31" y="11" width="10" height="5" transform="rotate(90 31 11)" fill="#F02A29"/>
    <rect x="31" y="21" width="10" height="5" transform="rotate(90 31 21)" fill="#FCD905"/>
    <path d="M12.5625 25.6667C12.0079 25.6667 11.5332 25.4692 11.1382 25.0743C10.7433 24.6793 10.5458 24.2046 10.5458 23.65H14.5792C14.5792 24.2046 14.3817 24.6793 13.9868 25.0743C13.5918 25.4692 13.1171 25.6667 12.5625 25.6667ZM8.52917 22.6417V20.625H16.5958V22.6417H8.52917ZM8.78125 19.6167C7.62167 18.9276 6.70156 18.0033 6.02094 16.8437C5.34031 15.6842 5 14.4237 5 13.0625C5 10.9618 5.73524 9.17621 7.20573 7.70573C8.67622 6.23524 10.4618 5.5 12.5625 5.5C14.6632 5.5 16.4488 6.23524 17.9193 7.70573C19.3898 9.17621 20.125 10.9618 20.125 13.0625C20.125 14.4237 19.7847 15.6842 19.1041 16.8437C18.4234 18.0033 17.5033 18.9276 16.3438 19.6167H8.78125Z" fill="white"/>
  </g>
  <path d="M44 6.58594C43.9453 6.39583 43.8685 6.22786 43.7695 6.08203C43.6706 5.93359 43.5495 5.80859 43.4063 5.70703C43.2656 5.60286 43.1042 5.52344 42.9219 5.46875C42.7422 5.41406 42.543 5.38672 42.3242 5.38672C41.9154 5.38672 41.556 5.48828 41.2461 5.69141C40.9388 5.89453 40.6992 6.1901 40.5273 6.57812C40.3555 6.96354 40.2695 7.4349 40.2695 7.99219C40.2695 8.54948 40.3542 9.02344 40.5234 9.41406C40.6927 9.80469 40.9323 10.1029 41.2422 10.3086C41.5521 10.5117 41.918 10.6133 42.3398 10.6133C42.7227 10.6133 43.0495 10.5456 43.3203 10.4102C43.5938 10.2721 43.8021 10.0781 43.9453 9.82812C44.0911 9.57812 44.1641 9.28255 44.1641 8.94141L44.5078 8.99219H42.4453V7.71875H45.793V8.72656C45.793 9.42969 45.6445 10.0339 45.3477 10.5391C45.0508 11.0417 44.6419 11.4297 44.1211 11.7031C43.6003 11.974 43.0039 12.1094 42.332 12.1094C41.582 12.1094 40.9232 11.944 40.3555 11.6133C39.7878 11.2799 39.3451 10.8073 39.0273 10.1953C38.7122 9.58073 38.5547 8.85156 38.5547 8.00781C38.5547 7.35937 38.6484 6.78125 38.8359 6.27344C39.026 5.76302 39.2917 5.33073 39.6328 4.97656C39.974 4.6224 40.3711 4.35286 40.8242 4.16797C41.2773 3.98307 41.7682 3.89062 42.2969 3.89062C42.75 3.89062 43.1719 3.95703 43.5625 4.08984C43.9531 4.22005 44.2995 4.40495 44.6016 4.64453C44.9063 4.88411 45.1549 5.16927 45.3477 5.5C45.5404 5.82812 45.6641 6.1901 45.7188 6.58594H44ZM49.7666 12.1172C49.1494 12.1172 48.6182 11.9922 48.1729 11.7422C47.7301 11.4896 47.389 11.1328 47.1494 10.6719C46.9098 10.2083 46.79 9.66016 46.79 9.02734C46.79 8.41016 46.9098 7.86849 47.1494 7.40234C47.389 6.9362 47.7262 6.57292 48.1611 6.3125C48.5986 6.05208 49.1117 5.92188 49.7002 5.92188C50.096 5.92188 50.4645 5.98568 50.8057 6.11328C51.1494 6.23828 51.4489 6.42708 51.7041 6.67969C51.9619 6.93229 52.1624 7.25 52.3057 7.63281C52.4489 8.01302 52.5205 8.45833 52.5205 8.96875V9.42578H47.4541V8.39453H50.9541C50.9541 8.15495 50.902 7.94271 50.7979 7.75781C50.6937 7.57292 50.5492 7.42839 50.3643 7.32422C50.182 7.21745 49.9697 7.16406 49.7275 7.16406C49.4749 7.16406 49.251 7.22266 49.0557 7.33984C48.863 7.45443 48.7119 7.60937 48.6025 7.80469C48.4932 7.9974 48.4372 8.21224 48.4346 8.44922V9.42969C48.4346 9.72656 48.4893 9.98307 48.5986 10.1992C48.7106 10.4154 48.8682 10.582 49.0713 10.6992C49.2744 10.8164 49.5153 10.875 49.7939 10.875C49.9788 10.875 50.1481 10.849 50.3018 10.7969C50.4554 10.7448 50.5869 10.6667 50.6963 10.5625C50.8057 10.4583 50.889 10.3307 50.9463 10.1797L52.4854 10.2812C52.4072 10.651 52.2471 10.974 52.0049 11.25C51.7653 11.5234 51.4554 11.737 51.0752 11.8906C50.6976 12.0417 50.2614 12.1172 49.7666 12.1172ZM58.5986 7.71094L57.0752 7.80469C57.0492 7.67448 56.9932 7.55729 56.9072 7.45312C56.8213 7.34635 56.708 7.26172 56.5674 7.19922C56.4294 7.13411 56.264 7.10156 56.0713 7.10156C55.8135 7.10156 55.596 7.15625 55.4189 7.26562C55.2419 7.3724 55.1533 7.51562 55.1533 7.69531C55.1533 7.83854 55.2106 7.95964 55.3252 8.05859C55.4398 8.15755 55.6364 8.23698 55.915 8.29687L57.001 8.51562C57.5843 8.63542 58.0192 8.82812 58.3057 9.09375C58.5921 9.35937 58.7354 9.70833 58.7354 10.1406C58.7354 10.5339 58.6195 10.8789 58.3877 11.1758C58.1585 11.4727 57.8434 11.7044 57.4424 11.8711C57.0439 12.0352 56.5843 12.1172 56.0635 12.1172C55.2692 12.1172 54.6364 11.9518 54.165 11.6211C53.6963 11.2878 53.4215 10.8346 53.3408 10.2617L54.9775 10.1758C55.027 10.418 55.1468 10.6029 55.3369 10.7305C55.527 10.8555 55.7705 10.918 56.0674 10.918C56.359 10.918 56.5934 10.862 56.7705 10.75C56.9502 10.6354 57.0413 10.4883 57.0439 10.3086C57.0413 10.1576 56.9775 10.0339 56.8525 9.9375C56.7275 9.83854 56.5348 9.76302 56.2744 9.71094L55.2354 9.50391C54.6494 9.38672 54.2132 9.18359 53.9268 8.89453C53.6429 8.60547 53.501 8.23698 53.501 7.78906C53.501 7.40365 53.6051 7.07161 53.8135 6.79297C54.0244 6.51432 54.32 6.29948 54.7002 6.14844C55.083 5.9974 55.5309 5.92188 56.0439 5.92188C56.8018 5.92188 57.3981 6.08203 57.833 6.40234C58.2705 6.72266 58.5257 7.15885 58.5986 7.71094ZM62.5176 12.1172C61.9004 12.1172 61.3691 11.9922 60.9238 11.7422C60.4811 11.4896 60.14 11.1328 59.9004 10.6719C59.6608 10.2083 59.541 9.66016 59.541 9.02734C59.541 8.41016 59.6608 7.86849 59.9004 7.40234C60.14 6.9362 60.4772 6.57292 60.9121 6.3125C61.3496 6.05208 61.8626 5.92188 62.4512 5.92188C62.847 5.92188 63.2155 5.98568 63.5566 6.11328C63.9004 6.23828 64.1999 6.42708 64.4551 6.67969C64.7129 6.93229 64.9134 7.25 65.0566 7.63281C65.1999 8.01302 65.2715 8.45833 65.2715 8.96875V9.42578H60.2051V8.39453H63.7051C63.7051 8.15495 63.653 7.94271 63.5488 7.75781C63.4447 7.57292 63.3001 7.42839 63.1152 7.32422C62.9329 7.21745 62.7207 7.16406 62.4785 7.16406C62.2259 7.16406 62.002 7.22266 61.8066 7.33984C61.6139 7.45443 61.4629 7.60937 61.3535 7.80469C61.2441 7.9974 61.1882 8.21224 61.1855 8.44922V9.42969C61.1855 9.72656 61.2402 9.98307 61.3496 10.1992C61.4616 10.4154 61.6191 10.582 61.8223 10.6992C62.0254 10.8164 62.2663 10.875 62.5449 10.875C62.7298 10.875 62.8991 10.849 63.0527 10.7969C63.2064 10.7448 63.3379 10.6667 63.4473 10.5625C63.5566 10.4583 63.64 10.3307 63.6973 10.1797L65.2363 10.2812C65.1582 10.651 64.998 10.974 64.7559 11.25C64.5163 11.5234 64.2064 11.737 63.8262 11.8906C63.4486 12.0417 63.0124 12.1172 62.5176 12.1172ZM68.0215 4V12H66.3574V4H68.0215ZM71.0186 4V12H69.3545V4H71.0186ZM77.3438 7.71094L75.8203 7.80469C75.7943 7.67448 75.7383 7.55729 75.6523 7.45312C75.5664 7.34635 75.4531 7.26172 75.3125 7.19922C75.1745 7.13411 75.0091 7.10156 74.8164 7.10156C74.5586 7.10156 74.3411 7.15625 74.1641 7.26562C73.987 7.3724 73.8984 7.51562 73.8984 7.69531C73.8984 7.83854 73.9557 7.95964 74.0703 8.05859C74.1849 8.15755 74.3815 8.23698 74.6602 8.29687L75.7461 8.51562C76.3294 8.63542 76.7643 8.82812 77.0508 9.09375C77.3372 9.35937 77.4805 9.70833 77.4805 10.1406C77.4805 10.5339 77.3646 10.8789 77.1328 11.1758C76.9036 11.4727 76.5885 11.7044 76.1875 11.8711C75.7891 12.0352 75.3294 12.1172 74.8086 12.1172C74.0143 12.1172 73.3815 11.9518 72.9102 11.6211C72.4414 11.2878 72.1667 10.8346 72.0859 10.2617L73.7227 10.1758C73.7721 10.418 73.8919 10.6029 74.082 10.7305C74.2721 10.8555 74.5156 10.918 74.8125 10.918C75.1042 10.918 75.3385 10.862 75.5156 10.75C75.6953 10.6354 75.7865 10.4883 75.7891 10.3086C75.7865 10.1576 75.7227 10.0339 75.5977 9.9375C75.4727 9.83854 75.2799 9.76302 75.0195 9.71094L73.9805 9.50391C73.3945 9.38672 72.9583 9.18359 72.6719 8.89453C72.388 8.60547 72.2461 8.23698 72.2461 7.78906C72.2461 7.40365 72.3503 7.07161 72.5586 6.79297C72.7695 6.51432 73.0651 6.29948 73.4453 6.14844C73.8281 5.9974 74.276 5.92188 74.7891 5.92188C75.5469 5.92188 76.1432 6.08203 76.5781 6.40234C77.0156 6.72266 77.2708 7.15885 77.3438 7.71094ZM81.2393 12.1172C80.6247 12.1172 80.096 11.987 79.6533 11.7266C79.2132 11.4635 78.8747 11.099 78.6377 10.6328C78.4033 10.1667 78.2861 9.63021 78.2861 9.02344C78.2861 8.40885 78.4046 7.86979 78.6416 7.40625C78.8812 6.9401 79.221 6.57682 79.6611 6.31641C80.1012 6.05339 80.6247 5.92188 81.2314 5.92188C81.7549 5.92188 82.2132 6.01693 82.6064 6.20703C82.9997 6.39714 83.3109 6.66406 83.54 7.00781C83.7692 7.35156 83.8955 7.75521 83.9189 8.21875H82.3486C82.3044 7.91927 82.1872 7.67839 81.9971 7.49609C81.8096 7.3112 81.5635 7.21875 81.2588 7.21875C81.001 7.21875 80.7757 7.28906 80.583 7.42969C80.3929 7.56771 80.2445 7.76953 80.1377 8.03516C80.0309 8.30078 79.9775 8.6224 79.9775 9C79.9775 9.38281 80.0296 9.70833 80.1338 9.97656C80.2406 10.2448 80.3903 10.4492 80.583 10.5898C80.7757 10.7305 81.001 10.8008 81.2588 10.8008C81.4489 10.8008 81.6195 10.7617 81.7705 10.6836C81.9242 10.6055 82.0505 10.4922 82.1494 10.3437C82.251 10.1927 82.3174 10.0117 82.3486 9.80078H83.9189C83.8929 10.2591 83.7679 10.6628 83.5439 11.0117C83.3226 11.3581 83.0166 11.6289 82.626 11.8242C82.2354 12.0195 81.7731 12.1172 81.2393 12.1172ZM86.6484 8.53125V12H84.9844V4H86.6016V7.05859H86.6719C86.8073 6.70443 87.026 6.42708 87.3281 6.22656C87.6302 6.02344 88.0091 5.92188 88.4648 5.92188C88.8815 5.92188 89.2448 6.01302 89.5547 6.19531C89.8672 6.375 90.1094 6.63411 90.2813 6.97266C90.4557 7.30859 90.5417 7.71094 90.5391 8.17969V12H88.875V8.47656C88.8776 8.10677 88.7839 7.81901 88.5938 7.61328C88.4063 7.40755 88.1432 7.30469 87.8047 7.30469C87.5781 7.30469 87.3776 7.35286 87.2031 7.44922C87.0313 7.54557 86.8958 7.6862 86.7969 7.87109C86.7005 8.05339 86.651 8.27344 86.6484 8.53125ZM93.5596 12.1133C93.1768 12.1133 92.8356 12.0469 92.5361 11.9141C92.2367 11.7786 91.9997 11.5794 91.8252 11.3164C91.6533 11.0508 91.5674 10.7201 91.5674 10.3242C91.5674 9.99089 91.6286 9.71094 91.751 9.48437C91.8734 9.25781 92.04 9.07552 92.251 8.9375C92.4619 8.79948 92.7015 8.69531 92.9697 8.625C93.2406 8.55469 93.5244 8.50521 93.8213 8.47656C94.1702 8.4401 94.4515 8.40625 94.665 8.375C94.8786 8.34115 95.0335 8.29167 95.1299 8.22656C95.2262 8.16146 95.2744 8.0651 95.2744 7.9375V7.91406C95.2744 7.66667 95.1963 7.47526 95.04 7.33984C94.8864 7.20443 94.6676 7.13672 94.3838 7.13672C94.0843 7.13672 93.846 7.20312 93.6689 7.33594C93.4919 7.46615 93.3747 7.63021 93.3174 7.82812L91.7783 7.70312C91.8564 7.33854 92.0101 7.02344 92.2393 6.75781C92.4684 6.48958 92.764 6.28385 93.126 6.14062C93.4906 5.99479 93.9124 5.92188 94.3916 5.92188C94.7249 5.92188 95.0439 5.96094 95.3486 6.03906C95.6559 6.11719 95.9281 6.23828 96.165 6.40234C96.4046 6.56641 96.5934 6.77734 96.7314 7.03516C96.8695 7.29036 96.9385 7.59635 96.9385 7.95312V12H95.3604V11.168H95.3135C95.2171 11.3555 95.0882 11.5208 94.9268 11.6641C94.7653 11.8047 94.5713 11.9154 94.3447 11.9961C94.1182 12.0742 93.8564 12.1133 93.5596 12.1133ZM94.0361 10.9648C94.2809 10.9648 94.4971 10.9167 94.6846 10.8203C94.8721 10.7214 95.0192 10.5885 95.126 10.4219C95.2327 10.2552 95.2861 10.0664 95.2861 9.85547V9.21875C95.234 9.2526 95.1624 9.28385 95.0713 9.3125C94.9827 9.33854 94.8825 9.36328 94.7705 9.38672C94.6585 9.40755 94.5465 9.42708 94.4346 9.44531C94.3226 9.46094 94.221 9.47526 94.1299 9.48828C93.9346 9.51693 93.764 9.5625 93.6182 9.625C93.4723 9.6875 93.359 9.77214 93.2783 9.87891C93.1976 9.98307 93.1572 10.1133 93.1572 10.2695C93.1572 10.4961 93.2393 10.6693 93.4033 10.7891C93.57 10.9062 93.7809 10.9648 94.0361 10.9648ZM101.456 6V7.25H97.7529V6H101.456ZM98.6006 12V5.56641C98.6006 5.13151 98.6852 4.77083 98.8545 4.48437C99.0264 4.19792 99.2607 3.98307 99.5576 3.83984C99.8545 3.69661 100.192 3.625 100.569 3.625C100.825 3.625 101.058 3.64453 101.269 3.68359C101.482 3.72266 101.641 3.75781 101.745 3.78906L101.448 5.03906C101.383 5.01823 101.302 4.9987 101.206 4.98047C101.112 4.96224 101.016 4.95312 100.917 4.95312C100.672 4.95312 100.502 5.01042 100.405 5.125C100.309 5.23698 100.261 5.39453 100.261 5.59766V12H98.6006ZM105.664 6V7.25H102.051V6H105.664ZM102.871 4.5625H104.535V10.1562C104.535 10.3099 104.559 10.4297 104.605 10.5156C104.652 10.599 104.717 10.6576 104.801 10.6914C104.887 10.7253 104.986 10.7422 105.098 10.7422C105.176 10.7422 105.254 10.7357 105.332 10.7227C105.41 10.707 105.47 10.6953 105.512 10.6875L105.773 11.9258C105.69 11.9518 105.573 11.9818 105.422 12.0156C105.271 12.0521 105.087 12.0742 104.871 12.082C104.47 12.0977 104.118 12.0443 103.816 11.9219C103.517 11.7995 103.284 11.6094 103.117 11.3516C102.951 11.0937 102.868 10.7682 102.871 10.375V4.5625ZM112.521 6V7.25H108.817V6H112.521ZM109.665 12V5.56641C109.665 5.13151 109.75 4.77083 109.919 4.48437C110.091 4.19792 110.325 3.98307 110.622 3.83984C110.919 3.69661 111.256 3.625 111.634 3.625C111.889 3.625 112.122 3.64453 112.333 3.68359C112.547 3.72266 112.705 3.75781 112.81 3.78906L112.513 5.03906C112.448 5.01823 112.367 4.9987 112.271 4.98047C112.177 4.96224 112.08 4.95312 111.981 4.95312C111.737 4.95312 111.566 5.01042 111.47 5.125C111.373 5.23698 111.325 5.39453 111.325 5.59766V12H109.665ZM117.385 9.44531V6H119.049V12H117.451V10.9102H117.389C117.253 11.2617 117.028 11.5443 116.713 11.7578C116.4 11.9714 116.019 12.0781 115.568 12.0781C115.167 12.0781 114.814 11.987 114.51 11.8047C114.205 11.6224 113.967 11.3633 113.795 11.0273C113.626 10.6914 113.54 10.2891 113.537 9.82031V6H115.201V9.52344C115.204 9.8776 115.299 10.1576 115.486 10.3633C115.674 10.569 115.925 10.6719 116.24 10.6719C116.441 10.6719 116.628 10.6263 116.803 10.5352C116.977 10.4414 117.118 10.3034 117.225 10.1211C117.334 9.9388 117.387 9.71354 117.385 9.44531ZM115.111 5.17969C114.887 5.17969 114.695 5.10156 114.533 4.94531C114.372 4.78646 114.291 4.59896 114.291 4.38281C114.291 4.16146 114.372 3.97396 114.533 3.82031C114.695 3.66667 114.887 3.58984 115.111 3.58984C115.338 3.58984 115.529 3.66667 115.686 3.82031C115.844 3.97396 115.924 4.16146 115.924 4.38281C115.924 4.59896 115.844 4.78646 115.686 4.94531C115.529 5.10156 115.338 5.17969 115.111 5.17969ZM117.502 5.17969C117.278 5.17969 117.085 5.10156 116.924 4.94531C116.762 4.78646 116.682 4.59896 116.682 4.38281C116.682 4.16146 116.762 3.97396 116.924 3.82031C117.085 3.66667 117.278 3.58984 117.502 3.58984C117.729 3.58984 117.92 3.66667 118.076 3.82031C118.235 3.97396 118.314 4.16146 118.314 4.38281C118.314 4.59896 118.235 4.78646 118.076 4.94531C117.92 5.10156 117.729 5.17969 117.502 5.17969ZM120.38 12V6H121.993V7.04687H122.056C122.165 6.67448 122.349 6.39323 122.606 6.20313C122.864 6.01042 123.161 5.91406 123.497 5.91406C123.58 5.91406 123.67 5.91927 123.767 5.92969C123.863 5.9401 123.948 5.95443 124.021 5.97266V7.44922C123.942 7.42578 123.834 7.40495 123.696 7.38672C123.558 7.36849 123.432 7.35938 123.317 7.35938C123.073 7.35938 122.854 7.41276 122.661 7.51953C122.471 7.6237 122.32 7.76953 122.208 7.95703C122.099 8.14453 122.044 8.36068 122.044 8.60547V12H120.38Z" fill="white"/>
  <path d="M38.9482 28V17.0909H46.299V18.9925H41.2546V21.592H45.9208V23.4936H41.2546V26.0984H46.3203V28H38.9482ZM50.3593 23.2699V28H48.0901V19.8182H50.2528V21.2617H50.3486C50.5297 20.7859 50.8334 20.4094 51.2595 20.1325C51.6856 19.8519 52.2023 19.7116 52.8096 19.7116C53.3778 19.7116 53.8731 19.8359 54.2957 20.0845C54.7183 20.3331 55.0468 20.6882 55.2812 21.1499C55.5155 21.608 55.6327 22.1548 55.6327 22.7905V28H53.3635V23.1953C53.3671 22.6946 53.2393 22.304 52.98 22.0234C52.7208 21.7393 52.3639 21.5973 51.9094 21.5973C51.604 21.5973 51.3341 21.663 51.0997 21.7944C50.8689 21.9258 50.6878 22.1175 50.5564 22.3697C50.4285 22.6183 50.3628 22.9183 50.3593 23.2699ZM61.1499 28.1598C60.3082 28.1598 59.5838 27.9893 58.9766 27.6484C58.3729 27.304 57.9077 26.8175 57.581 26.1889C57.2543 25.5568 57.0909 24.8093 57.0909 23.9464C57.0909 23.1048 57.2543 22.3661 57.581 21.7305C57.9077 21.0948 58.3675 20.5994 58.9606 20.2443C59.5572 19.8892 60.2567 19.7116 61.0593 19.7116C61.5991 19.7116 62.1016 19.7987 62.5668 19.9727C63.0355 20.1431 63.4439 20.4006 63.7919 20.745C64.1435 21.0895 64.4169 21.5227 64.6122 22.0447C64.8075 22.5632 64.9052 23.1705 64.9052 23.8665V24.4897H57.9964V23.0835H62.7692C62.7692 22.7567 62.6982 22.4673 62.5561 22.2152C62.4141 21.9631 62.217 21.766 61.9648 21.6239C61.7163 21.4783 61.4268 21.4055 61.0966 21.4055C60.7521 21.4055 60.4467 21.4854 60.1804 21.6452C59.9176 21.8015 59.7116 22.0128 59.5625 22.2791C59.4134 22.5419 59.337 22.8349 59.3335 23.158V24.495C59.3335 24.8999 59.408 25.2496 59.5572 25.5444C59.7099 25.8391 59.9247 26.0664 60.2017 26.2262C60.4787 26.386 60.8072 26.4659 61.1871 26.4659C61.4393 26.4659 61.6701 26.4304 61.8796 26.3594C62.0891 26.2884 62.2685 26.1818 62.4176 26.0398C62.5668 25.8977 62.6804 25.7237 62.7585 25.5178L64.8572 25.6562C64.7507 26.1605 64.5323 26.6009 64.2021 26.9773C63.8754 27.3501 63.4528 27.6413 62.9343 27.8509C62.4194 28.0568 61.8246 28.1598 61.1499 28.1598ZM66.386 28V19.8182H68.5859V21.2457H68.6712C68.8203 20.7379 69.0707 20.3544 69.4222 20.0952C69.7738 19.8324 70.1786 19.701 70.6367 19.701C70.7504 19.701 70.8729 19.7081 71.0043 19.7223C71.1357 19.7365 71.2511 19.756 71.3505 19.7809V21.7944C71.244 21.7624 71.0966 21.734 70.9084 21.7092C70.7202 21.6843 70.5479 21.6719 70.3917 21.6719C70.0579 21.6719 69.7596 21.7447 69.4968 21.8903C69.2376 22.0323 69.0316 22.2312 68.8789 22.4869C68.7298 22.7425 68.6552 23.0373 68.6552 23.3711V28H66.386ZM75.8289 31.2386C75.0938 31.2386 74.4635 31.1374 73.9379 30.935C73.4159 30.7362 73.0004 30.4645 72.6915 30.12C72.3825 29.7756 72.1819 29.3885 72.0896 28.9588L74.1883 28.6765C74.2522 28.8398 74.3534 28.9925 74.4919 29.1346C74.6304 29.2766 74.8133 29.3903 75.0406 29.4755C75.2714 29.5643 75.5519 29.6087 75.8822 29.6087C76.3758 29.6087 76.7824 29.4879 77.102 29.2464C77.4252 29.0085 77.5867 28.609 77.5867 28.0479V26.5511H77.4909C77.3914 26.7784 77.2423 26.9933 77.0434 27.1957C76.8445 27.3981 76.5889 27.5632 76.2764 27.6911C75.9639 27.8189 75.591 27.8828 75.1578 27.8828C74.5434 27.8828 73.9841 27.7408 73.4798 27.4567C72.9791 27.169 72.5796 26.7305 72.2813 26.141C71.9866 25.5479 71.8392 24.7987 71.8392 23.8931C71.8392 22.9663 71.9901 22.1921 72.292 21.5707C72.5938 20.9492 72.9951 20.484 73.4958 20.1751C74.0001 19.8661 74.5523 19.7116 75.1524 19.7116C75.6105 19.7116 75.9941 19.7898 76.303 19.946C76.6119 20.0987 76.8605 20.2905 77.0487 20.5213C77.2405 20.7486 77.3879 20.9723 77.4909 21.1925H77.5761V19.8182H79.8293V28.0799C79.8293 28.7759 79.6588 29.3583 79.3179 29.8271C78.977 30.2958 78.5047 30.6474 77.901 30.8817C77.3009 31.1197 76.6102 31.2386 75.8289 31.2386ZM75.8769 26.1783C76.2426 26.1783 76.5516 26.0877 76.8037 25.9066C77.0594 25.7219 77.2547 25.4592 77.3896 25.1183C77.5281 24.7738 77.5974 24.3619 77.5974 23.8825C77.5974 23.4031 77.5299 22.9876 77.395 22.636C77.26 22.2809 77.0647 22.0057 76.809 21.8104C76.5534 21.6151 76.2426 21.5174 75.8769 21.5174C75.504 21.5174 75.1897 21.6186 74.934 21.821C74.6784 22.0199 74.4848 22.2969 74.3534 22.652C74.222 23.0071 74.1563 23.4173 74.1563 23.8825C74.1563 24.3548 74.222 24.7631 74.3534 25.1076C74.4884 25.4485 74.6819 25.7131 74.934 25.9013C75.1897 26.0859 75.504 26.1783 75.8769 26.1783ZM81.635 28V19.8182H83.9042V28H81.635ZM82.7749 18.7635C82.4376 18.7635 82.1482 18.6516 81.9067 18.4279C81.6688 18.2006 81.5498 17.929 81.5498 17.6129C81.5498 17.3004 81.6688 17.0323 81.9067 16.8086C82.1482 16.5813 82.4376 16.4677 82.7749 16.4677C83.1123 16.4677 83.3999 16.5813 83.6379 16.8086C83.8794 17.0323 84.0001 17.3004 84.0001 17.6129C84.0001 17.929 83.8794 18.2006 83.6379 18.4279C83.3999 18.6516 83.1123 18.7635 82.7749 18.7635ZM89.4506 28.1598C88.609 28.1598 87.8846 27.9893 87.2773 27.6484C86.6737 27.304 86.2085 26.8175 85.8817 26.1889C85.555 25.5568 85.3917 24.8093 85.3917 23.9464C85.3917 23.1048 85.555 22.3661 85.8817 21.7305C86.2085 21.0948 86.6683 20.5994 87.2614 20.2443C87.858 19.8892 88.5575 19.7116 89.3601 19.7116C89.8999 19.7116 90.4023 19.7987 90.8675 19.9727C91.3363 20.1431 91.7447 20.4006 92.0927 20.745C92.4442 21.0895 92.7177 21.5227 92.913 22.0447C93.1083 22.5632 93.206 23.1705 93.206 23.8665V24.4897H86.2972V23.0835H91.07C91.07 22.7567 90.9989 22.4673 90.8569 22.2152C90.7148 21.9631 90.5178 21.766 90.2656 21.6239C90.017 21.4783 89.7276 21.4055 89.3974 21.4055C89.0529 21.4055 88.7475 21.4854 88.4812 21.6452C88.2184 21.8015 88.0124 22.0128 87.8633 22.2791C87.7141 22.5419 87.6378 22.8349 87.6342 23.158V24.495C87.6342 24.8999 87.7088 25.2496 87.858 25.5444C88.0107 25.8391 88.2255 26.0664 88.5025 26.2262C88.7795 26.386 89.108 26.4659 89.4879 26.4659C89.7401 26.4659 89.9709 26.4304 90.1804 26.3594C90.3899 26.2884 90.5692 26.1818 90.7184 26.0398C90.8675 25.8977 90.9812 25.7237 91.0593 25.5178L93.158 25.6562C93.0515 26.1605 92.8331 26.6009 92.5028 26.9773C92.1761 27.3501 91.7536 27.6413 91.2351 27.8509C90.7202 28.0568 90.1254 28.1598 89.4506 28.1598ZM94.7294 28V17.0909H96.9986V21.1925H97.0678C97.1673 20.9723 97.3111 20.7486 97.4993 20.5213C97.6911 20.2905 97.9396 20.0987 98.245 19.946C98.554 19.7898 98.9375 19.7116 99.3956 19.7116C99.9922 19.7116 100.543 19.8679 101.047 20.1804C101.551 20.4893 101.954 20.9563 102.256 21.5813C102.558 22.2028 102.709 22.9822 102.709 23.9197C102.709 24.8324 102.561 25.603 102.267 26.2315C101.975 26.8565 101.578 27.3306 101.074 27.6538C100.573 27.9734 100.012 28.1332 99.3903 28.1332C98.9499 28.1332 98.5753 28.0604 98.2663 27.9148C97.9609 27.7692 97.7106 27.5863 97.5153 27.3661C97.32 27.1424 97.1708 26.9169 97.0678 26.6896H96.9666V28H94.7294ZM96.9506 23.9091C96.9506 24.3956 97.0181 24.82 97.1531 25.1822C97.288 25.5444 97.4833 25.8267 97.739 26.0291C97.9947 26.228 98.3054 26.3274 98.6712 26.3274C99.0405 26.3274 99.353 26.2262 99.6087 26.0238C99.8643 25.8178 100.058 25.5337 100.189 25.1715C100.324 24.8058 100.392 24.3849 100.392 23.9091C100.392 23.4368 100.326 23.0213 100.195 22.6626C100.063 22.304 99.8697 22.0234 99.614 21.821C99.3583 21.6186 99.044 21.5174 98.6712 21.5174C98.3018 21.5174 97.9893 21.6151 97.7337 21.8104C97.4815 22.0057 97.288 22.2827 97.1531 22.6413C97.0181 23 96.9506 23.4226 96.9506 23.9091ZM107.952 28.1598C107.11 28.1598 106.386 27.9893 105.778 27.6484C105.175 27.304 104.709 26.8175 104.383 26.1889C104.056 25.5568 103.893 24.8093 103.893 23.9464C103.893 23.1048 104.056 22.3661 104.383 21.7305C104.709 21.0948 105.169 20.5994 105.762 20.2443C106.359 19.8892 107.059 19.7116 107.861 19.7116C108.401 19.7116 108.903 19.7987 109.369 19.9727C109.837 20.1431 110.246 20.4006 110.594 20.745C110.945 21.0895 111.219 21.5227 111.414 22.0447C111.609 22.5632 111.707 23.1705 111.707 23.8665V24.4897H104.798V23.0835H109.571C109.571 22.7567 109.5 22.4673 109.358 22.2152C109.216 21.9631 109.019 21.766 108.767 21.6239C108.518 21.4783 108.229 21.4055 107.898 21.4055C107.554 21.4055 107.248 21.4854 106.982 21.6452C106.719 21.8015 106.513 22.0128 106.364 22.2791C106.215 22.5419 106.139 22.8349 106.135 23.158V24.495C106.135 24.8999 106.21 25.2496 106.359 25.5444C106.512 25.8391 106.726 26.0664 107.003 26.2262C107.28 26.386 107.609 26.4659 107.989 26.4659C108.241 26.4659 108.472 26.4304 108.681 26.3594C108.891 26.2884 109.07 26.1818 109.219 26.0398C109.369 25.8977 109.482 25.7237 109.56 25.5178L111.659 25.6562C111.552 26.1605 111.334 26.6009 111.004 26.9773C110.677 27.3501 110.255 27.6413 109.736 27.8509C109.221 28.0568 108.626 28.1598 107.952 28.1598ZM113.188 28V19.8182H115.388V21.2457H115.473C115.622 20.7379 115.872 20.3544 116.224 20.0952C116.576 19.8324 116.98 19.701 117.438 19.701C117.552 19.701 117.675 19.7081 117.806 19.7223C117.937 19.7365 118.053 19.756 118.152 19.7809V21.7944C118.046 21.7624 117.898 21.734 117.71 21.7092C117.522 21.6843 117.35 21.6719 117.193 21.6719C116.86 21.6719 116.561 21.7447 116.299 21.8903C116.039 22.0323 115.833 22.2312 115.681 22.4869C115.532 22.7425 115.457 23.0373 115.457 23.3711V28H113.188ZM121.424 28.1545C120.902 28.1545 120.437 28.0639 120.029 27.8828C119.62 27.6982 119.297 27.4265 119.059 27.0678C118.825 26.7056 118.708 26.2546 118.708 25.7148C118.708 25.2603 118.791 24.8786 118.958 24.5696C119.125 24.2607 119.352 24.0121 119.64 23.8239C119.927 23.6357 120.254 23.4936 120.62 23.3977C120.989 23.3018 121.376 23.2344 121.781 23.1953C122.257 23.1456 122.64 23.0994 122.932 23.0568C123.223 23.0107 123.434 22.9432 123.566 22.8544C123.697 22.7656 123.763 22.6342 123.763 22.4602V22.4283C123.763 22.0909 123.656 21.8299 123.443 21.6452C123.233 21.4606 122.935 21.3683 122.548 21.3683C122.14 21.3683 121.815 21.4588 121.573 21.6399C121.332 21.8175 121.172 22.0412 121.094 22.3111L118.995 22.1406C119.102 21.6435 119.311 21.2138 119.624 20.8516C119.936 20.4858 120.339 20.2053 120.833 20.0099C121.33 19.8111 121.905 19.7116 122.559 19.7116C123.013 19.7116 123.448 19.7649 123.864 19.8714C124.283 19.978 124.654 20.1431 124.977 20.3668C125.304 20.5906 125.561 20.8782 125.749 21.2298C125.938 21.5778 126.032 21.995 126.032 22.4815V28H123.88V26.8654H123.816C123.684 27.1211 123.509 27.3466 123.289 27.5419C123.068 27.7337 122.804 27.8846 122.495 27.9947C122.186 28.1012 121.829 28.1545 121.424 28.1545ZM122.074 26.5884C122.408 26.5884 122.703 26.5227 122.958 26.3913C123.214 26.2564 123.415 26.0753 123.56 25.848C123.706 25.6207 123.779 25.3633 123.779 25.0756V24.2074C123.708 24.2536 123.61 24.2962 123.486 24.3352C123.365 24.3707 123.228 24.4045 123.075 24.4364C122.923 24.4648 122.77 24.4915 122.617 24.5163C122.465 24.5376 122.326 24.5572 122.202 24.5749C121.936 24.614 121.703 24.6761 121.504 24.7614C121.305 24.8466 121.151 24.962 121.041 25.1076C120.931 25.2496 120.876 25.4272 120.876 25.6403C120.876 25.9492 120.987 26.1854 121.211 26.3487C121.438 26.5085 121.726 26.5884 122.074 26.5884ZM132.144 19.8182V21.5227H127.217V19.8182H132.144ZM128.336 17.858H130.605V25.4858C130.605 25.6953 130.637 25.8587 130.701 25.9759C130.765 26.0895 130.853 26.1694 130.967 26.2156C131.084 26.2617 131.219 26.2848 131.372 26.2848C131.478 26.2848 131.585 26.2759 131.691 26.2582C131.798 26.2369 131.88 26.2209 131.936 26.2102L132.293 27.8988C132.18 27.9343 132.02 27.9751 131.814 28.0213C131.608 28.071 131.358 28.1012 131.063 28.1119C130.516 28.1332 130.037 28.0604 129.625 27.8935C129.216 27.7266 128.898 27.4673 128.671 27.1158C128.444 26.7642 128.332 26.3203 128.336 25.7841V17.858ZM138.869 24.5163V19.8182H141.138V28H138.96V26.5138H138.874C138.69 26.9933 138.383 27.3786 137.953 27.6697C137.527 27.9609 137.007 28.1065 136.392 28.1065C135.845 28.1065 135.364 27.9822 134.949 27.7337C134.533 27.4851 134.208 27.1317 133.974 26.6737C133.743 26.2156 133.626 25.6669 133.622 25.0277V19.8182H135.892V24.6229C135.895 25.1058 136.025 25.4876 136.28 25.7681C136.536 26.0487 136.879 26.1889 137.308 26.1889C137.582 26.1889 137.838 26.1268 138.075 26.0025C138.313 25.8746 138.505 25.6864 138.651 25.4379C138.8 25.1893 138.873 24.8821 138.869 24.5163ZM145.223 23.2699V28H142.953V19.8182H145.116V21.2617H145.212C145.393 20.7859 145.697 20.4094 146.123 20.1325C146.549 19.8519 147.066 19.7116 147.673 19.7116C148.241 19.7116 148.736 19.8359 149.159 20.0845C149.582 20.3331 149.91 20.6882 150.144 21.1499C150.379 21.608 150.496 22.1548 150.496 22.7905V28H148.227V23.1953C148.23 22.6946 148.103 22.304 147.843 22.0234C147.584 21.7393 147.227 21.5973 146.773 21.5973C146.467 21.5973 146.197 21.663 145.963 21.7944C145.732 21.9258 145.551 22.1175 145.42 22.3697C145.292 22.6183 145.226 22.9183 145.223 23.2699ZM155.971 31.2386C155.235 31.2386 154.605 31.1374 154.08 30.935C153.558 30.7362 153.142 30.4645 152.833 30.12C152.524 29.7756 152.324 29.3885 152.231 28.9588L154.33 28.6765C154.394 28.8398 154.495 28.9925 154.634 29.1346C154.772 29.2766 154.955 29.3903 155.182 29.4755C155.413 29.5643 155.694 29.6087 156.024 29.6087C156.517 29.6087 156.924 29.4879 157.244 29.2464C157.567 29.0085 157.728 28.609 157.728 28.0479V26.5511H157.632C157.533 26.7784 157.384 26.9933 157.185 27.1957C156.986 27.3981 156.73 27.5632 156.418 27.6911C156.105 27.8189 155.733 27.8828 155.299 27.8828C154.685 27.8828 154.126 27.7408 153.621 27.4567C153.121 27.169 152.721 26.7305 152.423 26.141C152.128 25.5479 151.981 24.7987 151.981 23.8931C151.981 22.9663 152.132 22.1921 152.434 21.5707C152.735 20.9492 153.137 20.484 153.637 20.1751C154.142 19.8661 154.694 19.7116 155.294 19.7116C155.752 19.7116 156.136 19.7898 156.445 19.946C156.754 20.0987 157.002 20.2905 157.19 20.5213C157.382 20.7486 157.529 20.9723 157.632 21.1925H157.718V19.8182H159.971V28.0799C159.971 28.7759 159.8 29.3583 159.46 29.8271C159.119 30.2958 158.646 30.6474 158.043 30.8817C157.442 31.1197 156.752 31.2386 155.971 31.2386ZM156.018 26.1783C156.384 26.1783 156.693 26.0877 156.945 25.9066C157.201 25.7219 157.396 25.4592 157.531 25.1183C157.67 24.7738 157.739 24.3619 157.739 23.8825C157.739 23.4031 157.672 22.9876 157.537 22.636C157.402 22.2809 157.206 22.0057 156.951 21.8104C156.695 21.6151 156.384 21.5174 156.018 21.5174C155.646 21.5174 155.331 21.6186 155.076 21.821C154.82 22.0199 154.626 22.2969 154.495 22.652C154.364 23.0071 154.298 23.4173 154.298 23.8825C154.298 24.3548 154.364 24.7631 154.495 25.1076C154.63 25.4485 154.824 25.7131 155.076 25.9013C155.331 26.0859 155.646 26.1783 156.018 26.1783Z" fill="white"/>
</svg>
