<svg width="24" height="25" viewBox="0 0 24 25" fill="none" xmlns="http://www.w3.org/2000/svg">
<g clip-path="url(#clip0_37_437)">
<path d="M3 13.7861H5V11.7861H3V13.7861ZM3 17.7861H5V15.7861H3V17.7861ZM3 9.78613H5V7.78613H3V9.78613ZM7 13.7861H21V11.7861H7V13.7861ZM7 17.7861H21V15.7861H7V17.7861ZM7 7.78613V9.78613H21V7.78613H7ZM3 13.7861H5V11.7861H3V13.7861ZM3 17.7861H5V15.7861H3V17.7861ZM3 9.78613H5V7.78613H3V9.78613ZM7 13.7861H21V11.7861H7V13.7861ZM7 17.7861H21V15.7861H7V17.7861ZM7 7.78613V9.78613H21V7.78613H7Z" fill="#0F3B6B"/>
</g>
<defs>
<clipPath id="clip0_37_437">
<rect width="24" height="24" fill="white" transform="translate(0 0.786133)"/>
</clipPath>
</defs>
</svg>
